<?xml version='1.0' encoding='utf-8'?>
<svg xmlns:xlink="http://www.w3.org/1999/xlink" xmlns="http://www.w3.org/2000/svg" id="Layer_1" viewBox="0 0 1920 1080">
    <defs>
        <style>.cls-1{stroke:url(#linear-gradient-2);}.cls-1,.cls-2,.cls-3,.cls-4,.cls-5,.cls-6,.cls-7,.cls-8,.cls-9,.cls-10,.cls-11,.cls-12,.cls-13,.cls-14,.cls-15,.cls-16,.cls-17,.cls-18,.cls-19,.cls-20,.cls-21,.cls-22,.cls-23,.cls-24,.cls-25,.cls-26,.cls-27,.cls-28,.cls-29,.cls-30,.cls-31,.cls-32,.cls-33,.cls-34,.cls-35,.cls-36,.cls-37,.cls-38,.cls-39,.cls-40,.cls-41,.cls-42,.cls-43,.cls-44,.cls-45,.cls-46,.cls-47,.cls-48,.cls-49,.cls-50,.cls-51,.cls-52,.cls-53,.cls-54,.cls-55,.cls-56,.cls-57,.cls-58,.cls-59,.cls-60,.cls-61,.cls-62,.cls-63,.cls-64,.cls-65,.cls-66,.cls-67,.cls-68,.cls-69,.cls-70,.cls-71,.cls-72,.cls-73,.cls-74,.cls-75,.cls-76,.cls-77,.cls-78,.cls-79,.cls-80,.cls-81,.cls-82,.cls-83,.cls-84,.cls-85,.cls-86,.cls-87,.cls-88,.cls-89,.cls-90,.cls-91,.cls-92,.cls-93,.cls-94,.cls-95,.cls-96,.cls-97,.cls-98,.cls-99,.cls-100,.cls-101,.cls-102,.cls-103,.cls-104,.cls-105,.cls-106,.cls-107,.cls-108,.cls-109,.cls-110,.cls-111,.cls-112,.cls-113,.cls-114,.cls-115,.cls-116,.cls-117,.cls-118,.cls-119,.cls-120,.cls-121,.cls-122,.cls-123,.cls-124,.cls-125,.cls-126,.cls-127,.cls-128,.cls-129,.cls-130{fill:none;}.cls-1,.cls-2,.cls-3,.cls-4,.cls-5,.cls-6,.cls-7,.cls-8,.cls-9,.cls-10,.cls-11,.cls-12,.cls-13,.cls-14,.cls-15,.cls-16,.cls-17,.cls-18,.cls-19,.cls-20,.cls-21,.cls-22,.cls-23,.cls-24,.cls-25,.cls-26,.cls-27,.cls-28,.cls-29,.cls-30,.cls-31,.cls-32,.cls-33,.cls-34,.cls-35,.cls-36,.cls-37,.cls-38,.cls-39,.cls-40,.cls-41,.cls-42,.cls-43,.cls-44,.cls-45,.cls-46,.cls-47,.cls-48,.cls-49,.cls-50,.cls-51,.cls-52,.cls-53,.cls-54,.cls-55,.cls-56,.cls-57,.cls-58,.cls-59,.cls-60,.cls-61,.cls-62,.cls-63,.cls-64,.cls-65,.cls-66,.cls-67,.cls-68,.cls-69,.cls-70,.cls-71,.cls-72,.cls-73,.cls-74,.cls-75,.cls-76,.cls-77,.cls-78,.cls-79,.cls-80,.cls-81,.cls-82,.cls-83,.cls-84,.cls-85,.cls-86,.cls-87,.cls-89,.cls-90,.cls-91,.cls-92,.cls-93,.cls-94,.cls-95,.cls-96,.cls-97,.cls-98,.cls-99,.cls-100,.cls-101,.cls-102,.cls-103,.cls-104,.cls-105,.cls-106,.cls-107,.cls-108,.cls-109,.cls-110,.cls-111,.cls-112,.cls-113,.cls-114,.cls-115,.cls-116,.cls-117,.cls-118,.cls-119,.cls-120,.cls-121,.cls-122,.cls-123,.cls-124,.cls-125,.cls-126,.cls-127,.cls-128,.cls-129,.cls-130{stroke-miterlimit:10;}.cls-2{stroke:url(#linear-gradient-3);}.cls-3{stroke:url(#linear-gradient-129);}.cls-4{stroke:url(#linear-gradient-28);}.cls-5{stroke:url(#linear-gradient-127);}.cls-6{stroke:url(#linear-gradient-64);}.cls-7{stroke:url(#linear-gradient-9);}.cls-8{stroke:url(#linear-gradient-89);}.cls-9{stroke:url(#linear-gradient-37);}.cls-10{stroke:url(#linear-gradient-76);}.cls-11{stroke:url(#linear-gradient-128);}.cls-12{stroke:url(#linear-gradient-53);}.cls-13{stroke:url(#linear-gradient-58);}.cls-14{stroke:url(#linear-gradient-22);}.cls-15{stroke:url(#linear-gradient-19);}.cls-16{stroke:url(#linear-gradient-106);}.cls-17{stroke:url(#linear-gradient-120);}.cls-18{stroke:url(#linear-gradient-70);}.cls-19{stroke:url(#linear-gradient-26);}.cls-20{stroke:url(#linear-gradient-4);}.cls-21{stroke:url(#linear-gradient-61);}.cls-22{stroke:url(#linear-gradient-6);}.cls-23{stroke:url(#linear-gradient-18);}.cls-24{stroke:url(#linear-gradient-105);}.cls-25{stroke:url(#linear-gradient-74);}.cls-26{stroke:url(#linear-gradient-50);}.cls-27{stroke:url(#linear-gradient-78);}.cls-28{stroke:url(#linear-gradient-111);}.cls-29{stroke:url(#linear-gradient-87);}.cls-30{stroke:url(#linear-gradient-119);}.cls-31{stroke:url(#linear-gradient-13);}.cls-32{stroke:url(#linear-gradient-63);}.cls-33{stroke:url(#linear-gradient-82);}.cls-34{stroke:url(#linear-gradient-29);}.cls-35{stroke:url(#linear-gradient-16);}.cls-36{stroke:url(#linear-gradient-83);}.cls-37{stroke:url(#linear-gradient-69);}.cls-38{stroke:url(#linear-gradient-17);}.cls-39{stroke:url(#linear-gradient-48);}.cls-40{stroke:url(#linear-gradient-55);}.cls-41{stroke:url(#linear-gradient-118);}.cls-42{stroke:url(#linear-gradient-100);}.cls-43{stroke:url(#linear-gradient-30);}.cls-44{stroke:url(#linear-gradient-52);}.cls-45{stroke:url(#linear-gradient-95);}.cls-46{stroke:url(#linear-gradient-116);}.cls-131{fill:url(#radial-gradient);}.cls-47{stroke:url(#linear-gradient-79);}.cls-48{stroke:url(#linear-gradient-102);}.cls-49{stroke:url(#linear-gradient-122);}.cls-50{stroke:url(#linear-gradient-101);}.cls-51{stroke:url(#linear-gradient-7);}.cls-52{stroke:url(#linear-gradient-39);}.cls-53{stroke:url(#linear-gradient-90);}.cls-54{stroke:url(#linear-gradient-94);}.cls-55{stroke:url(#linear-gradient-21);}.cls-56{stroke:url(#linear-gradient-92);}.cls-57{stroke:url(#linear-gradient-12);}.cls-58{stroke:url(#linear-gradient-67);}.cls-59{stroke:url(#linear-gradient-5);}.cls-60{stroke:url(#linear-gradient-38);}.cls-61{stroke:url(#linear-gradient-85);}.cls-62{stroke:url(#linear-gradient-59);}.cls-63{stroke:url(#linear-gradient-91);}.cls-64{stroke:url(#linear-gradient-103);}.cls-65{stroke:url(#linear-gradient-60);}.cls-66{stroke:url(#linear-gradient-66);}.cls-67{stroke:url(#linear-gradient-51);}.cls-68{stroke:url(#linear-gradient-54);}.cls-69{stroke:url(#linear-gradient-125);}.cls-70{stroke:url(#linear-gradient-98);}.cls-71{stroke:url(#linear-gradient-32);}.cls-72{stroke:url(#linear-gradient-107);}.cls-73{stroke:url(#linear-gradient-114);}.cls-74{stroke:url(#linear-gradient-123);}.cls-75{stroke:url(#linear-gradient-36);}.cls-76{stroke:url(#linear-gradient-112);}.cls-77{stroke:url(#linear-gradient-81);}.cls-78{stroke:url(#linear-gradient-84);}.cls-132{clip-path:url(#clippath);}.cls-79{stroke:url(#linear-gradient-20);}.cls-80{stroke:url(#linear-gradient-73);}.cls-81{stroke:url(#linear-gradient-24);}.cls-82{stroke:url(#linear-gradient-57);}.cls-83{stroke:url(#linear-gradient-33);}.cls-84{stroke:url(#linear-gradient-31);}.cls-85{stroke:url(#linear-gradient-96);}.cls-86{stroke:url(#linear-gradient);}.cls-87{stroke:url(#linear-gradient-99);}.cls-89{stroke:url(#linear-gradient-25);}.cls-90{stroke:url(#linear-gradient-97);}.cls-91{stroke:url(#linear-gradient-68);}.cls-92{stroke:url(#linear-gradient-35);}.cls-93{stroke:url(#linear-gradient-62);}.cls-94{stroke:url(#linear-gradient-109);}.cls-95{stroke:url(#linear-gradient-72);}.cls-96{stroke:url(#linear-gradient-108);}.cls-97{stroke:url(#linear-gradient-75);}.cls-98{stroke:url(#linear-gradient-46);}.cls-99{stroke:url(#linear-gradient-110);}.cls-100{stroke:url(#linear-gradient-86);}.cls-101{stroke:url(#linear-gradient-115);}.cls-102{stroke:url(#linear-gradient-71);}.cls-103{stroke:url(#linear-gradient-49);}.cls-104{stroke:url(#linear-gradient-27);}.cls-105{stroke:url(#linear-gradient-23);}.cls-106{stroke:url(#linear-gradient-14);}.cls-107{stroke:url(#linear-gradient-41);}.cls-108{stroke:url(#linear-gradient-44);}.cls-109{stroke:url(#linear-gradient-124);}.cls-110{stroke:url(#linear-gradient-42);}.cls-111{stroke:url(#linear-gradient-34);}.cls-112{stroke:url(#linear-gradient-113);}.cls-113{stroke:url(#linear-gradient-88);}.cls-114{stroke:url(#linear-gradient-11);}.cls-115{stroke:url(#linear-gradient-8);}.cls-116{stroke:url(#linear-gradient-47);}.cls-117{stroke:url(#linear-gradient-80);}.cls-118{stroke:url(#linear-gradient-65);}.cls-119{stroke:url(#linear-gradient-126);}.cls-120{stroke:url(#linear-gradient-40);}.cls-121{stroke:url(#linear-gradient-10);}.cls-122{stroke:url(#linear-gradient-15);}.cls-123{stroke:url(#linear-gradient-43);}.cls-124{stroke:url(#linear-gradient-117);}.cls-125{stroke:url(#linear-gradient-77);}.cls-126{stroke:url(#linear-gradient-93);}.cls-127{stroke:url(#linear-gradient-121);}.cls-128{stroke:url(#linear-gradient-45);}.cls-129{stroke:url(#linear-gradient-104);}.cls-130{stroke:url(#linear-gradient-56);}
        </style>
        <style>
            svg {
                stroke-dasharray: 2000;
                pointer-events: none;
                animation: animateDash 8s linear forwards infinite;
            }

            @keyframes animateDash {
                0% {
                    stroke-dashoffset: 4000;
                }
                100% {
                    stroke-dashoffset: 0;
                }
            }
        </style>
        <radialGradient id="radial-gradient" cx="960" cy="540" fx="960" fy="540" r="925.42" gradientTransform="translate(0 -47.25) scale(1 1.09)" gradientUnits="userSpaceOnUse">
            <stop offset="0" stop-color="#27005c"/>
            <stop offset=".21" stop-color="#230056"/>
            <stop offset=".5" stop-color="#1b0045"/>
            <stop offset=".82" stop-color="#0d0029"/>
            <stop offset="1" stop-color="#040017"/>
        </radialGradient>
        <clipPath id="clippath">
            <rect class="cls-88" width="1920" height="1080"/>
        </clipPath>
        <linearGradient id="linear-gradient" x1="-159.49" y1="614.36" x2="1991.29" y2="614.36" gradientUnits="userSpaceOnUse">
            <stop offset="0" stop-color="#630057"/>
            <stop offset=".14" stop-color="#680553"/>
            <stop offset=".32" stop-color="#761648"/>
            <stop offset=".54" stop-color="#8d3236"/>
            <stop offset=".77" stop-color="#ae591d"/>
            <stop offset="1" stop-color="#d68800"/>
        </linearGradient>
        <linearGradient id="linear-gradient-2" x1="-159.33" y1="613.14" x2="1991.33" y2="613.14" xlink:href="#linear-gradient"/>
        <linearGradient id="linear-gradient-3" x1="-159.01" y1="611.73" x2="1991.41" y2="611.73" xlink:href="#linear-gradient"/>
        <linearGradient id="linear-gradient-4" x1="-158.55" y1="610.14" x2="1991.53" y2="610.14" xlink:href="#linear-gradient"/>
        <linearGradient id="linear-gradient-5" x1="-157.94" y1="608.39" x2="1991.68" y2="608.39" xlink:href="#linear-gradient"/>
        <linearGradient id="linear-gradient-6" x1="-157.2" y1="606.47" x2="1991.86" y2="606.47" xlink:href="#linear-gradient"/>
        <linearGradient id="linear-gradient-7" x1="-156.34" y1="604.41" x2="1992.07" y2="604.41" xlink:href="#linear-gradient"/>
        <linearGradient id="linear-gradient-8" x1="-155.35" y1="602.24" x2="1992.31" y2="602.24" xlink:href="#linear-gradient"/>
        <linearGradient id="linear-gradient-9" x1="-154.26" y1="599.91" x2="1992.57" y2="599.91" xlink:href="#linear-gradient"/>
        <linearGradient id="linear-gradient-10" x1="-153.06" y1="597.46" x2="1992.86" y2="597.46" xlink:href="#linear-gradient"/>
        <linearGradient id="linear-gradient-11" x1="-151.77" y1="594.9" x2="1993.17" y2="594.9" xlink:href="#linear-gradient"/>
        <linearGradient id="linear-gradient-12" x1="-150.39" y1="592.23" x2="1993.51" y2="592.23" xlink:href="#linear-gradient"/>
        <linearGradient id="linear-gradient-13" x1="-148.94" y1="589.48" x2="1993.86" y2="589.48" xlink:href="#linear-gradient"/>
        <linearGradient id="linear-gradient-14" x1="-147.41" y1="586.64" x2="1994.22" y2="586.64" xlink:href="#linear-gradient"/>
        <linearGradient id="linear-gradient-15" x1="-145.82" y1="583.72" x2="1994.6" y2="583.72" xlink:href="#linear-gradient"/>
        <linearGradient id="linear-gradient-16" x1="-144.18" y1="581.71" x2="1995" y2="581.71" xlink:href="#linear-gradient"/>
        <linearGradient id="linear-gradient-17" x1="-142.48" y1="578.61" x2="1995.4" y2="578.61" xlink:href="#linear-gradient"/>
        <linearGradient id="linear-gradient-18" x1="-140.75" y1="575.49" x2="1995.82" y2="575.49" xlink:href="#linear-gradient"/>
        <linearGradient id="linear-gradient-19" x1="-138.99" y1="572.3" x2="1996.24" y2="572.3" xlink:href="#linear-gradient"/>
        <linearGradient id="linear-gradient-20" x1="-137.2" y1="569.07" x2="1996.67" y2="569.07" xlink:href="#linear-gradient"/>
        <linearGradient id="linear-gradient-21" x1="-135.41" y1="565.81" x2="1997.1" y2="565.81" xlink:href="#linear-gradient"/>
        <linearGradient id="linear-gradient-22" x1="-133.6" y1="562.54" x2="1997.53" y2="562.54" xlink:href="#linear-gradient"/>
        <linearGradient id="linear-gradient-23" x1="-131.8" y1="563.76" x2="1997.96" y2="563.76" xlink:href="#linear-gradient"/>
        <linearGradient id="linear-gradient-24" x1="-130.01" y1="568.58" x2="1998.4" y2="568.58" xlink:href="#linear-gradient"/>
        <linearGradient id="linear-gradient-25" x1="-128.23" y1="573.36" x2="1998.82" y2="573.36" xlink:href="#linear-gradient"/>
        <linearGradient id="linear-gradient-26" x1="-126.48" y1="577.99" x2="1999.25" y2="577.99" xlink:href="#linear-gradient"/>
        <linearGradient id="linear-gradient-27" x1="-124.75" y1="582.59" x2="1999.67" y2="582.59" xlink:href="#linear-gradient"/>
        <linearGradient id="linear-gradient-28" x1="-123.07" y1="582" x2="2000.08" y2="582" xlink:href="#linear-gradient"/>
        <linearGradient id="linear-gradient-29" x1="-121.43" y1="580.78" x2="2000.48" y2="580.78" xlink:href="#linear-gradient"/>
        <linearGradient id="linear-gradient-30" x1="-119.84" y1="579.56" x2="2000.87" y2="579.56" xlink:href="#linear-gradient"/>
        <linearGradient id="linear-gradient-31" x1="-118.32" y1="578.36" x2="2001.24" y2="578.36" xlink:href="#linear-gradient"/>
        <linearGradient id="linear-gradient-32" x1="-116.87" y1="577.18" x2="2001.59" y2="577.18" xlink:href="#linear-gradient"/>
        <linearGradient id="linear-gradient-33" x1="-115.5" y1="576.02" x2="2001.93" y2="576.02" xlink:href="#linear-gradient"/>
        <linearGradient id="linear-gradient-34" x1="-114.21" y1="574.87" x2="2002.24" y2="574.87" xlink:href="#linear-gradient"/>
        <linearGradient id="linear-gradient-35" x1="-113.01" y1="573.75" x2="2002.53" y2="573.75" xlink:href="#linear-gradient"/>
        <linearGradient id="linear-gradient-36" x1="-111.92" y1="572.64" x2="2002.79" y2="572.64" xlink:href="#linear-gradient"/>
        <linearGradient id="linear-gradient-37" x1="-110.93" y1="571.56" x2="2003.03" y2="571.56" xlink:href="#linear-gradient"/>
        <linearGradient id="linear-gradient-38" x1="-110.06" y1="570.49" x2="2003.24" y2="570.49" xlink:href="#linear-gradient"/>
        <linearGradient id="linear-gradient-39" x1="-109.32" y1="569.46" x2="2003.41" y2="569.46" xlink:href="#linear-gradient"/>
        <linearGradient id="linear-gradient-40" x1="-108.71" y1="568.47" x2="2003.56" y2="568.47" xlink:href="#linear-gradient"/>
        <linearGradient id="linear-gradient-41" x1="-108.23" y1="567.51" x2="2003.67" y2="567.51" xlink:href="#linear-gradient"/>
        <linearGradient id="linear-gradient-42" x1="-107.91" y1="566.58" x2="2003.74" y2="566.58" xlink:href="#linear-gradient"/>
        <linearGradient id="linear-gradient-43" x1="-107.74" y1="565.7" x2="2003.78" y2="565.7" xlink:href="#linear-gradient"/>
        <linearGradient id="linear-gradient-44" x1="-107.7" y1="564.89" x2="2003.78" y2="564.89" xlink:href="#linear-gradient"/>
        <linearGradient id="linear-gradient-45" x1="-107.61" y1="564.58" x2="2003.79" y2="564.58" xlink:href="#linear-gradient"/>
        <linearGradient id="linear-gradient-46" x1="-107.44" y1="564.83" x2="2003.79" y2="564.83" xlink:href="#linear-gradient"/>
        <linearGradient id="linear-gradient-47" x1="-107.18" y1="565.59" x2="2003.79" y2="565.59" xlink:href="#linear-gradient"/>
        <linearGradient id="linear-gradient-48" x1="-106.85" y1="566.86" x2="2003.79" y2="566.86" xlink:href="#linear-gradient"/>
        <linearGradient id="linear-gradient-49" x1="-106.45" y1="568.59" x2="2003.79" y2="568.59" xlink:href="#linear-gradient"/>
        <linearGradient id="linear-gradient-50" x1="-105.97" y1="570.75" x2="2003.8" y2="570.75" xlink:href="#linear-gradient"/>
        <linearGradient id="linear-gradient-51" x1="-105.44" y1="573.33" x2="2003.8" y2="573.33" xlink:href="#linear-gradient"/>
        <linearGradient id="linear-gradient-52" x1="-104.84" y1="576.29" x2="2003.8" y2="576.29" xlink:href="#linear-gradient"/>
        <linearGradient id="linear-gradient-53" x1="-104.19" y1="579.61" x2="2003.8" y2="579.61" xlink:href="#linear-gradient"/>
        <linearGradient id="linear-gradient-54" x1="-103.49" y1="583.26" x2="2003.8" y2="583.26" xlink:href="#linear-gradient"/>
        <linearGradient id="linear-gradient-55" x1="-102.74" y1="587.21" x2="2003.79" y2="587.21" xlink:href="#linear-gradient"/>
        <linearGradient id="linear-gradient-56" x1="-101.95" y1="591.44" x2="2003.79" y2="591.44" xlink:href="#linear-gradient"/>
        <linearGradient id="linear-gradient-57" x1="-101.12" y1="595.96" x2="2003.79" y2="595.96" xlink:href="#linear-gradient"/>
        <linearGradient id="linear-gradient-58" x1="-100.26" y1="600.56" x2="2003.79" y2="600.56" xlink:href="#linear-gradient"/>
        <linearGradient id="linear-gradient-59" x1="-99.37" y1="599.2" x2="2003.79" y2="599.2" xlink:href="#linear-gradient"/>
        <linearGradient id="linear-gradient-60" x1="-98.45" y1="597.12" x2="2003.79" y2="597.12" xlink:href="#linear-gradient"/>
        <linearGradient id="linear-gradient-61" x1="-97.51" y1="595.01" x2="2003.78" y2="595.01" xlink:href="#linear-gradient"/>
        <linearGradient id="linear-gradient-62" x1="-96.55" y1="593.46" x2="2003.78" y2="593.46" xlink:href="#linear-gradient"/>
        <linearGradient id="linear-gradient-63" x1="-95.59" y1="591.45" x2="2003.79" y2="591.45" xlink:href="#linear-gradient"/>
        <linearGradient id="linear-gradient-64" x1="-94.61" y1="589.44" x2="2003.79" y2="589.44" xlink:href="#linear-gradient"/>
        <linearGradient id="linear-gradient-65" x1="-93.63" y1="587.45" x2="2003.79" y2="587.45" xlink:href="#linear-gradient"/>
        <linearGradient id="linear-gradient-66" x1="-92.64" y1="585.43" x2="2003.79" y2="585.43" xlink:href="#linear-gradient"/>
        <linearGradient id="linear-gradient-67" x1="-91.67" y1="583.41" x2="2003.8" y2="583.41" xlink:href="#linear-gradient"/>
        <linearGradient id="linear-gradient-68" x1="-90.7" y1="581.41" x2="2003.8" y2="581.41" xlink:href="#linear-gradient"/>
        <linearGradient id="linear-gradient-69" x1="-89.74" y1="579.42" x2="2003.8" y2="579.42" xlink:href="#linear-gradient"/>
        <linearGradient id="linear-gradient-70" x1="-88.8" y1="577.45" x2="2003.8" y2="577.45" xlink:href="#linear-gradient"/>
        <linearGradient id="linear-gradient-71" x1="-87.88" y1="575.53" x2="2003.8" y2="575.53" xlink:href="#linear-gradient"/>
        <linearGradient id="linear-gradient-72" x1="-86.99" y1="573.62" x2="2003.8" y2="573.62" xlink:href="#linear-gradient"/>
        <linearGradient id="linear-gradient-73" x1="-86.13" y1="571.74" x2="2003.81" y2="571.74" xlink:href="#linear-gradient"/>
        <linearGradient id="linear-gradient-74" x1="-85.3" y1="569.9" x2="2003.81" y2="569.9" xlink:href="#linear-gradient"/>
        <linearGradient id="linear-gradient-75" x1="-84.51" y1="568.1" x2="2003.81" y2="568.1" xlink:href="#linear-gradient"/>
        <linearGradient id="linear-gradient-76" x1="-83.76" y1="566.19" x2="2003.81" y2="566.19" xlink:href="#linear-gradient"/>
        <linearGradient id="linear-gradient-77" x1="-83.06" y1="564.48" x2="2003.81" y2="564.48" xlink:href="#linear-gradient"/>
        <linearGradient id="linear-gradient-78" x1="-82.41" y1="562.83" x2="2003.81" y2="562.83" xlink:href="#linear-gradient"/>
        <linearGradient id="linear-gradient-79" x1="-81.81" y1="561.24" x2="2003.81" y2="561.24" xlink:href="#linear-gradient"/>
        <linearGradient id="linear-gradient-80" x1="-81.28" y1="559.71" x2="2003.81" y2="559.71" xlink:href="#linear-gradient"/>
        <linearGradient id="linear-gradient-81" x1="-80.81" y1="558.25" x2="2003.81" y2="558.25" xlink:href="#linear-gradient"/>
        <linearGradient id="linear-gradient-82" x1="-80.4" y1="556.86" x2="2003.81" y2="556.86" xlink:href="#linear-gradient"/>
        <linearGradient id="linear-gradient-83" x1="-80.07" y1="555.55" x2="2003.81" y2="555.55" xlink:href="#linear-gradient"/>
        <linearGradient id="linear-gradient-84" x1="-79.82" y1="554.33" x2="2003.8" y2="554.33" xlink:href="#linear-gradient"/>
        <linearGradient id="linear-gradient-85" x1="-79.64" y1="553.17" x2="2003.8" y2="553.17" xlink:href="#linear-gradient"/>
        <linearGradient id="linear-gradient-86" x1="-79.55" y1="552.12" x2="2003.8" y2="552.12" xlink:href="#linear-gradient"/>
        <linearGradient id="linear-gradient-87" x1="-79.57" y1="551.01" x2="2003.83" y2="551.01" xlink:href="#linear-gradient"/>
        <linearGradient id="linear-gradient-88" x1="-79.77" y1="549.39" x2="2004.12" y2="549.39" xlink:href="#linear-gradient"/>
        <linearGradient id="linear-gradient-89" x1="-80.16" y1="547.31" x2="2004.67" y2="547.31" xlink:href="#linear-gradient"/>
        <linearGradient id="linear-gradient-90" x1="-80.72" y1="544.82" x2="2005.48" y2="544.82" xlink:href="#linear-gradient"/>
        <linearGradient id="linear-gradient-91" x1="-81.46" y1="542.44" x2="2006.52" y2="542.44" xlink:href="#linear-gradient"/>
        <linearGradient id="linear-gradient-92" x1="-82.36" y1="538.73" x2="2007.8" y2="538.73" xlink:href="#linear-gradient"/>
        <linearGradient id="linear-gradient-93" x1="-83.41" y1="535.03" x2="2009.3" y2="535.03" xlink:href="#linear-gradient"/>
        <linearGradient id="linear-gradient-94" x1="-84.6" y1="530.99" x2="2010.99" y2="530.99" xlink:href="#linear-gradient"/>
        <linearGradient id="linear-gradient-95" x1="-85.92" y1="526.63" x2="2012.88" y2="526.63" xlink:href="#linear-gradient"/>
        <linearGradient id="linear-gradient-96" x1="-87.37" y1="521.93" x2="2014.94" y2="521.93" xlink:href="#linear-gradient"/>
        <linearGradient id="linear-gradient-97" x1="-88.93" y1="516.99" x2="2017.16" y2="516.99" xlink:href="#linear-gradient"/>
        <linearGradient id="linear-gradient-98" x1="-90.59" y1="511.8" x2="2019.53" y2="511.8" xlink:href="#linear-gradient"/>
        <linearGradient id="linear-gradient-99" x1="-92.34" y1="506.15" x2="2022.03" y2="506.15" xlink:href="#linear-gradient"/>
        <linearGradient id="linear-gradient-100" x1="-94.19" y1="500.53" x2="2024.66" y2="500.53" xlink:href="#linear-gradient"/>
        <linearGradient id="linear-gradient-101" x1="-96.1" y1="494.76" x2="2027.39" y2="494.76" xlink:href="#linear-gradient"/>
        <linearGradient id="linear-gradient-102" x1="-98.09" y1="488.79" x2="2030.22" y2="488.79" xlink:href="#linear-gradient"/>
        <linearGradient id="linear-gradient-103" x1="-100.12" y1="482.68" x2="2033.12" y2="482.68" xlink:href="#linear-gradient"/>
        <linearGradient id="linear-gradient-104" x1="-102.21" y1="476.57" x2="2036.1" y2="476.57" xlink:href="#linear-gradient"/>
        <linearGradient id="linear-gradient-105" x1="-104.34" y1="470.24" x2="2039.13" y2="470.24" xlink:href="#linear-gradient"/>
        <linearGradient id="linear-gradient-106" x1="-106.49" y1="463.72" x2="2042.2" y2="463.72" xlink:href="#linear-gradient"/>
        <linearGradient id="linear-gradient-107" x1="-108.66" y1="457.28" x2="2045.29" y2="457.28" xlink:href="#linear-gradient"/>
        <linearGradient id="linear-gradient-108" x1="-110.84" y1="450.85" x2="2048.4" y2="450.85" xlink:href="#linear-gradient"/>
        <linearGradient id="linear-gradient-109" x1="-113.02" y1="444.38" x2="2051.51" y2="444.38" xlink:href="#linear-gradient"/>
        <linearGradient id="linear-gradient-110" x1="-115.19" y1="437.98" x2="2054.61" y2="437.98" xlink:href="#linear-gradient"/>
        <linearGradient id="linear-gradient-111" x1="-117.34" y1="431.57" x2="2057.68" y2="431.57" xlink:href="#linear-gradient"/>
        <linearGradient id="linear-gradient-112" x1="-119.47" y1="425.17" x2="2060.71" y2="425.17" xlink:href="#linear-gradient"/>
        <linearGradient id="linear-gradient-113" x1="-121.56" y1="418.93" x2="2063.68" y2="418.93" xlink:href="#linear-gradient"/>
        <linearGradient id="linear-gradient-114" x1="-123.59" y1="412.85" x2="2066.59" y2="412.85" xlink:href="#linear-gradient"/>
        <linearGradient id="linear-gradient-115" x1="-125.58" y1="406.86" x2="2069.42" y2="406.86" xlink:href="#linear-gradient"/>
        <linearGradient id="linear-gradient-116" x1="-127.49" y1="401.02" x2="2072.15" y2="401.02" xlink:href="#linear-gradient"/>
        <linearGradient id="linear-gradient-117" x1="-129.34" y1="395.37" x2="2074.77" y2="395.37" xlink:href="#linear-gradient"/>
        <linearGradient id="linear-gradient-118" x1="-131.09" y1="390.78" x2="2077.28" y2="390.78" xlink:href="#linear-gradient"/>
        <linearGradient id="linear-gradient-119" x1="-132.75" y1="385.43" x2="2079.65" y2="385.43" xlink:href="#linear-gradient"/>
        <linearGradient id="linear-gradient-120" x1="-134.31" y1="380.29" x2="2081.87" y2="380.29" xlink:href="#linear-gradient"/>
        <linearGradient id="linear-gradient-121" x1="-135.76" y1="375.44" x2="2083.93" y2="375.44" xlink:href="#linear-gradient"/>
        <linearGradient id="linear-gradient-122" x1="-137.08" y1="370.91" x2="2085.81" y2="370.91" xlink:href="#linear-gradient"/>
        <linearGradient id="linear-gradient-123" x1="-138.27" y1="366.74" x2="2087.51" y2="366.74" xlink:href="#linear-gradient"/>
        <linearGradient id="linear-gradient-124" x1="-139.32" y1="362.94" x2="2089" y2="362.94" xlink:href="#linear-gradient"/>
        <linearGradient id="linear-gradient-125" x1="-140.22" y1="359.54" x2="2090.28" y2="359.54" xlink:href="#linear-gradient"/>
        <linearGradient id="linear-gradient-126" x1="-140.96" y1="356.59" x2="2091.33" y2="356.59" xlink:href="#linear-gradient"/>
        <linearGradient id="linear-gradient-127" x1="-141.52" y1="354.1" x2="2092.14" y2="354.1" xlink:href="#linear-gradient"/>
        <linearGradient id="linear-gradient-128" x1="-141.91" y1="352.09" x2="2092.69" y2="352.09" xlink:href="#linear-gradient"/>
        <linearGradient id="linear-gradient-129" x1="-142.11" y1="350.61" x2="2092.97" y2="350.61" xlink:href="#linear-gradient"/>
    </defs>
    <g class="cls-132">
        <g>
            <path class="cls-86" d="M-159.48,648.75c231.5-2.93,463.04-31.07,693.63-49.73,96.93-7.84,193.99-15.68,291.19-19.24,61.71-2.26,121.11-2.34,181.13-19.05,102.12-28.44,191.55-87.82,291.05-123.01,53.28-18.85,110.13-30.91,166.88-29.87,64.49,1.18,118.28,35.15,162.42,79.9,58.27,59.07,101.28,131.18,152.16,196.28,54.32,69.49,119.34,133.18,212.28,136.89"/>
            <path class="cls-1" d="M-159.32,646.98c231.54-5.83,462.81-30.45,693.65-48.01,96.97-7.38,194.02-14.75,291.2-18.94,61.61-2.65,121.27-2.65,181.18-19.37,102.15-28.5,191.34-88.38,290.82-123.73,53.2-18.91,110.23-31.1,166.93-29.71,64.3,1.58,118.3,35.82,162.43,80.3,109.94,110.82,185.38,322.77,364.42,331.65"/>
            <path class="cls-2" d="M-159,644.47c231.5-8.26,462.65-29.19,693.68-45.37,97.01-6.8,194.06-13.58,291.21-18.22,61.52-2.94,121.4-2.9,181.22-19.66,102.16-28.62,191.08-89.06,290.52-124.64,53.11-19,110.28-31.33,166.95-29.65,64.08,1.9,118.27,36.24,162.43,80.41,110.53,110.56,185.85,319.06,364.38,329.35"/>
            <path class="cls-20" d="M-158.53,641.27c231.42-10.25,462.56-27.33,693.73-41.85,97.05-6.1,194.11-12.19,291.22-17.12,61.45-3.12,121.5-3.09,181.23-19.93,102.17-28.8,190.79-89.87,290.16-125.73,53.02-19.13,110.3-31.6,166.94-29.68,63.84,2.16,118.2,36.43,162.43,80.23,111.14,110.08,186.41,314.89,364.32,326.33"/>
            <path class="cls-59" d="M-157.92,637.41c231.3-11.81,462.53-24.89,693.78-37.5,97.08-5.29,194.15-10.58,291.24-15.66,61.4-3.21,121.58-3.21,181.22-20.17,102.16-29.05,190.44-90.79,289.74-126.99,52.92-19.29,110.28-31.9,166.9-29.8,63.58,2.35,118.09,36.4,162.42,79.79,111.77,109.39,187.05,310.3,364.26,322.62"/>
            <path class="cls-22" d="M-157.17,632.92c231.16-12.97,462.56-21.91,693.85-32.35,97.1-4.38,194.2-8.77,291.26-13.84,61.36-3.21,121.64-3.27,181.19-20.39,102.15-29.35,190.06-91.82,289.27-128.42,52.83-19.49,110.23-32.23,166.83-30,63.29,2.49,117.94,36.17,162.41,79.09,112.41,108.51,187.76,305.31,364.18,318.26"/>
            <path class="cls-51" d="M-156.31,627.84c231.03-13.76,462.65-18.42,693.93-26.46,97.11-3.38,194.24-6.77,291.29-11.7,61.33-3.12,121.68-3.29,181.15-20.58,102.13-29.7,189.65-92.94,288.76-130,52.73-19.71,110.15-32.6,166.74-30.28,62.99,2.58,117.76,35.75,162.39,78.16,113.07,107.42,188.54,299.93,364.09,313.29"/>
            <path class="cls-115" d="M-155.32,622.21c228.98-14.08,458.92-14.39,688.22-19.74,98.18-2.29,196.41-4.6,294.51-9.26,61.77-2.93,122.88-3.08,182.74-20.58,101.32-29.63,187.79-92.93,285.71-130.7,52.64-20.31,109.93-33.83,166.68-32.01,63.24,2.03,118.46,33.32,163.99,75.43,114.75,106.15,190.32,295.73,365.74,309.37"/>
            <path class="cls-7" d="M-154.23,616.07c228.88-14.2,459.1-10.02,688.31-12.58,98.19-1.09,196.44-2.21,294.55-6.47,61.76-2.68,122.9-2.98,182.66-20.72,101.29-30.07,187.32-94.22,285.11-132.55,52.53-20.58,109.78-34.27,166.53-32.44,62.9,2.03,118.22,32.61,163.97,74.1,115.43,104.69,191.24,289.62,365.63,303.25"/>
            <path class="cls-121" d="M-153.03,609.45c228.81-14.02,459.32-5.23,688.41-4.81,98.18,.18,196.46,.33,294.59-3.41,61.75-2.35,122.91-2.84,182.57-20.85,101.25-30.56,186.81-95.6,284.46-134.51,52.41-20.89,109.6-34.74,166.37-32.94,62.55,1.98,117.96,31.77,163.94,72.57,116.12,103.04,192.22,283.19,365.51,296.64"/>
            <path class="cls-114" d="M-151.74,602.39c228.77-13.56,459.58-.06,688.52,3.5,98.17,1.53,196.48,3.02,294.63-.1,61.76-1.96,122.9-2.65,182.47-20.95,101.21-31.08,186.28-97.04,283.78-136.59,52.3-21.21,109.4-35.24,166.19-33.5,62.19,1.91,117.66,30.79,163.91,70.86,116.82,101.23,193.26,276.47,365.39,289.56"/>
            <path class="cls-57" d="M-150.37,594.93c228.78-12.85,459.88,5.47,688.63,12.32,98.15,2.94,196.49,5.85,294.68,3.43,61.76-1.52,122.88-2.42,182.35-21.03,101.17-31.65,185.72-98.56,283.06-138.77,52.18-21.55,109.18-35.76,165.98-34.11,61.81,1.79,117.35,29.7,163.87,69,117.53,99.25,194.36,269.47,365.26,282.06"/>
            <path class="cls-31" d="M-148.91,587.09c228.82-11.92,460.2,11.34,688.75,21.61,98.12,4.41,196.48,8.79,294.73,7.17,61.78-1.02,122.85-2.16,182.22-21.09,101.12-32.25,185.13-100.14,282.31-141.05,52.06-21.91,108.93-36.3,165.77-34.77,61.43,1.65,117.01,28.51,163.84,66.98,118.23,97.12,195.52,262.22,365.12,274.17"/>
            <path class="cls-106" d="M-147.39,578.93c107.21-5.05,214.98,1.59,322.01,7.83,122.33,7.12,244.55,16.08,366.86,23.48,98.08,5.93,196.47,11.84,294.78,11.1,61.8-.47,122.81-1.86,182.08-21.15,101.06-32.88,184.53-101.77,281.53-143.41,51.94-22.29,108.66-36.86,165.54-35.48,61.04,1.48,116.65,27.24,163.8,64.83,118.94,94.83,196.73,254.73,364.97,265.94"/>
            <path class="cls-122" d="M-145.8,570.47c107.29-4.43,215.12,3.97,322.07,11.88,122.37,9.06,244.59,20.13,366.94,29.49,98.04,7.5,196.45,14.99,294.83,15.18,61.83,.12,122.75-1.53,181.94-21.18,101.01-33.54,183.91-103.45,280.73-145.85,51.81-22.69,108.38-37.43,165.29-36.22,60.65,1.29,116.28,25.89,163.76,62.55,119.65,92.41,197.99,247.03,364.82,257.4"/>
            <path class="cls-35" d="M-144.16,561.76c107.39-3.73,215.27,6.46,322.12,16.11,122.42,11.05,244.63,24.27,367.02,35.65,97.99,9.11,196.41,18.22,294.88,19.42,61.87,.75,122.68-1.17,181.79-21.21,100.95-34.22,183.27-105.18,279.91-148.35,110.39-49.32,229.25-51.1,328.75,23.18,120.34,89.84,199.3,239.15,364.66,248.59"/>
            <path class="cls-38" d="M-142.47,552.82c107.51-2.97,215.44,9.07,322.18,20.48,122.47,13.09,244.67,28.5,367.1,41.94,97.93,10.75,196.37,21.52,294.94,23.77,61.91,1.41,122.61-.79,181.62-21.23,100.89-34.93,182.61-106.94,279.07-150.91,109.4-49.88,228.43-52.11,328.44,19.92,121.02,87.16,200.66,231.1,364.5,239.55"/>
            <path class="cls-23" d="M-140.74,543.71c108.31-2.16,216.96,11.91,324.24,25.22,123.1,15.27,245.87,33.01,368.93,48.58,97.85,12.38,196.32,24.84,295,27.88,62.01,1.91,122.24-1.26,181.04-22.56,99.59-36.08,180.12-108.28,275.56-152.62,109.35-50.81,228.85-52.29,329.63,18.42,120.5,84.55,200.87,221.36,362.14,228.76"/>
            <path class="cls-15" d="M-138.98,534.44c108.47-1.29,217.15,14.71,324.3,29.84,123.15,17.39,245.91,37.39,369.02,55.1,97.78,14.06,196.25,28.24,295.06,32.39,62.06,2.61,122.15-.9,180.86-22.62,99.52-36.82,179.45-110.08,274.7-155.25,108.32-51.37,227.99-53.36,329.3,14.91,55.66,37.51,101.48,87.17,152.71,130.12,61.23,51.33,128.17,86.1,209.26,89.32"/>
            <path class="cls-79" d="M-137.2,525.07c108.63-.39,217.36,17.57,324.36,34.53,123.2,19.53,245.95,41.82,369.1,61.69,97.7,15.76,196.17,31.68,295.11,36.97,62.1,3.32,122.07-.54,180.68-22.69,99.45-37.58,178.77-111.9,273.82-157.91,107.3-51.94,227.12-54.43,328.97,11.35,55.41,35.79,101.43,83.64,152.62,124.83,61.75,49.69,128.86,82.49,209.19,85.16"/>
            <path class="cls-55" d="M-135.4,515.62c108.82,.54,217.57,20.46,324.42,39.27,123.26,21.69,245.99,46.28,369.18,68.32,97.62,17.47,196.09,35.13,295.17,41.59,62.15,4.05,121.98-.17,180.49-22.75,99.39-38.35,178.08-113.73,272.94-160.58,106.3-52.51,226.24-55.49,328.63,7.75,55.16,34.07,101.38,80.09,152.52,119.51,62.27,48,129.54,78.85,209.11,80.97"/>
            <path class="cls-14" d="M-133.6,506.13c109.02,1.48,217.8,23.39,324.48,44.03,123.32,23.86,246.03,50.75,369.27,74.98,97.53,19.17,195.99,38.6,295.23,46.24,62.19,4.79,121.88,.21,180.31-22.81,99.32-39.13,177.39-115.56,272.06-163.27,105.33-53.08,225.36-56.51,328.3,4.13,54.91,32.35,101.32,76.53,152.43,114.18,62.79,46.26,130.22,75.18,209.04,76.75"/>
            <path class="cls-105" d="M-131.79,496.64c109.23,2.42,218.03,26.32,324.54,48.8,123.38,26.03,246.06,55.22,369.36,81.64,97.43,20.88,195.88,42.06,295.29,50.88,62.24,5.52,121.79,.58,180.12-22.87,99.25-39.9,176.71-117.4,271.17-165.95,104.39-53.66,224.48-57.51,327.96,.51,54.65,30.64,101.27,72.96,152.34,108.84,63.3,44.48,130.88,71.5,208.96,72.54"/>
            <path class="cls-81" d="M-129.99,487.2c109.46,3.36,218.28,29.25,324.61,53.54,123.44,28.2,246.1,59.67,369.44,88.27,97.33,22.57,195.77,45.5,295.35,55.5,62.28,6.25,121.69,.96,179.94-22.93,99.19-40.68,176.02-119.22,270.29-168.63,103.5-54.24,223.61-58.46,327.62-3.1,54.38,28.94,101.22,69.41,152.24,103.52,63.8,42.66,131.52,67.82,208.89,68.34"/>
            <path class="cls-89" d="M-128.21,477.82c109.69,4.28,218.53,32.15,324.67,58.23,123.5,30.35,246.13,64.1,369.53,94.86,97.22,24.24,195.65,48.92,295.41,60.08,62.32,6.97,121.6,1.33,179.76-23,99.13-41.46,175.34-121.03,269.42-171.29,102.64-54.82,222.75-59.35,327.29-6.66,54.12,27.28,101.17,65.88,152.15,98.24,64.29,40.81,132.14,64.16,208.82,64.19"/>
            <path class="cls-19" d="M-126.45,468.55c110.64,5.21,220.16,35.33,326.76,63.39,124.14,32.67,247.32,68.86,371.37,101.86,95,25.27,191.22,50.9,288.94,63.22,63,7.94,122.58,2.63,181.38-22.33,99.72-42.33,175.62-123.44,270.15-174.67,101.03-54.75,220.19-59.72,324.56-10.61,54.25,25.53,101.77,62.45,152.91,93.3,65.02,39.22,133.24,61.08,209.64,60.63"/>
            <path class="cls-104" d="M-124.73,459.44c110.89,6.07,220.43,38.15,326.82,67.94,124.2,34.79,247.35,73.21,371.45,108.33,94.89,26.85,191.09,54.14,289,67.55,63.05,8.64,122.47,3.03,181.21-22.36,99.66-43.09,174.95-125.22,269.29-177.27,100.3-55.34,219.37-60.46,324.24-13.98,53.97,23.93,101.72,59,152.82,88.12,65.48,37.32,133.82,57.48,209.56,56.59"/>
            <path class="cls-4" d="M-123.04,450.5c111.15,6.87,220.71,40.89,326.88,72.38,124.26,36.86,247.38,77.48,371.54,114.68,94.77,28.4,190.95,57.31,289.05,71.79,63.08,9.31,122.38,3.41,181.04-22.4,99.61-43.84,174.29-126.96,268.45-179.82,99.63-55.94,218.58-61.13,323.93-17.25,53.7,22.37,101.66,55.6,152.73,83.04,65.92,35.42,134.37,53.94,209.49,52.65"/>
            <path class="cls-34" d="M-121.39,441.79c111.41,7.61,221,43.53,326.93,76.67,124.33,38.89,247.4,81.65,371.61,120.9,94.65,29.91,190.81,60.42,289.1,75.91,63.11,9.95,122.3,3.77,180.88-22.46,99.57-44.57,173.65-128.66,267.63-182.32,99.02-56.54,217.81-61.71,323.64-20.4,53.44,20.86,101.61,52.27,152.64,78.06,66.33,33.52,134.88,50.49,209.43,48.83"/>
            <path class="cls-43" d="M-119.81,433.33c111.68,8.28,221.29,46.07,326.98,80.79,124.39,40.87,247.43,85.73,371.69,126.97,94.53,31.37,190.67,63.43,289.15,79.89,63.13,10.55,122.23,4.09,180.73-22.52,99.52-45.27,173.02-130.32,266.83-184.76,98.47-57.14,217.07-62.2,323.36-23.41,53.18,19.41,101.56,49.03,152.55,73.21,66.71,31.63,135.36,47.13,209.36,45.15"/>
            <path class="cls-84" d="M-118.28,425.17c111.94,8.86,221.59,48.47,327.03,84.72,124.45,42.79,247.45,89.69,371.77,132.85,94.39,32.77,190.52,66.35,289.2,83.7,63.15,11.1,122.17,4.39,180.59-22.59,99.49-45.96,172.41-131.93,266.06-187.11,97.98-57.74,216.36-62.6,323.09-26.27,52.93,18.02,101.52,45.89,152.47,68.51,67.07,29.77,135.81,43.89,209.3,41.64"/>
            <path class="cls-71" d="M-116.83,417.33c112.2,9.34,221.9,50.72,327.08,88.43,124.52,44.64,247.47,93.51,371.84,138.54,94.26,34.12,190.36,69.16,289.25,87.33,63.15,11.61,122.14,4.65,180.46-22.68,99.46-46.61,171.81-133.48,265.31-189.39,97.56-58.34,215.69-62.89,322.84-28.95,52.69,16.69,101.47,42.85,152.39,63.96,67.39,27.94,136.22,40.78,209.24,38.31"/>
            <path class="cls-83" d="M-115.45,409.87c112.46,9.71,222.21,52.81,327.13,91.89,124.58,46.41,247.48,97.19,371.91,144,94.12,35.41,190.2,71.85,289.29,90.77,63.14,12.05,122.12,4.88,180.34-22.78,99.43-47.24,171.24-134.97,264.59-191.57,97.2-58.93,215.05-63.08,322.61-31.43,52.47,15.44,101.43,39.94,152.31,59.6,67.68,26.16,136.59,37.81,209.18,35.18"/>
            <path class="cls-111" d="M-114.16,402.81c112.71,9.95,222.54,54.72,327.17,95.09,124.65,48.1,247.5,100.71,371.98,149.22,93.97,36.62,190.04,74.41,289.34,93.98,63.12,12.44,122.12,5.05,180.23-22.9,99.41-47.82,170.7-136.39,263.91-193.64,96.91-59.52,214.45-63.16,322.39-33.7,52.25,14.26,101.39,37.15,152.24,55.44,67.95,24.43,136.92,35.01,209.13,32.28"/>
            <path class="cls-92" d="M-112.97,396.19C-.02,406.25,109.9,452.61,214.24,494.19c124.71,49.7,247.51,104.04,372.04,154.18,93.81,37.76,189.88,76.83,289.37,96.94,63.09,12.75,122.15,5.18,180.13-23.03,99.4-48.37,170.18-137.74,263.26-195.6,96.68-60.1,213.88-63.11,322.21-35.73,52.05,13.16,101.35,34.51,152.17,51.49,68.18,22.78,137.22,32.38,209.09,29.62"/>
            <path class="cls-75" d="M-111.87,390.05c113.17,10.02,223.21,57.9,327.24,100.59,124.77,51.21,247.52,107.19,372.1,158.84,93.65,38.82,189.72,79.09,289.41,99.65,63.04,13,122.21,5.26,180.05-23.19,99.4-48.88,169.69-139,262.66-197.44,96.52-60.67,213.36-62.95,322.04-37.51,51.87,12.14,101.32,32.03,152.1,47.78,68.38,21.21,137.48,29.94,209.04,27.22"/>
            <path class="cls-9" d="M-110.89,384.42c113.37,9.82,223.56,59.15,327.27,102.85,124.84,52.6,247.52,110.13,372.16,163.19,93.48,39.79,189.56,81.2,289.44,102.07,62.98,13.16,122.29,5.27,179.99-23.36,99.4-49.33,169.24-140.18,262.1-199.14,96.42-61.22,212.88-62.66,321.9-39,51.7,11.22,101.29,29.71,152.04,44.32,68.55,19.73,137.71,27.72,209.01,25.12"/>
            <path class="cls-60" d="M-110.02,379.34c114.24,9.52,225.42,60.63,329.35,105.63,122.15,52.88,242.23,110.38,364.18,163.7,94.48,41.31,191.54,84.35,292.76,106.28,63.41,13.73,123.52,6.34,181.72-22.55,100.12-49.7,169.8-141.99,263.15-201.59,96.85-61.84,213.69-61.77,323.34-39.36,51.82,10.59,101.79,28.06,152.86,41.52,67.68,17.83,135.93,24.84,205.87,22.48"/>
            <path class="cls-52" d="M-109.28,374.85c114.39,8.96,225.79,61.36,329.37,107.15,122.21,54.02,242.23,112.82,364.23,167.29,94.3,42.1,191.38,86.13,292.79,108.13,63.31,13.74,123.67,6.23,181.69-22.77,100.15-50.06,169.41-142.98,262.69-203.01,96.87-62.35,213.29-61.21,323.26-40.28,51.69,9.84,101.77,26.08,152.81,38.59,67.79,16.61,136.08,23.15,205.85,21.06"/>
            <path class="cls-120" d="M-108.67,370.99c114.52,8.2,226.18,61.79,329.39,108.25,122.26,55.04,242.22,115,364.27,170.51,94.11,42.8,191.22,87.71,292.81,109.64,63.19,13.64,123.85,6.04,181.68-23.02,100.18-50.35,169.06-143.86,262.27-204.27,96.97-62.84,212.93-60.5,323.21-40.86,51.57,9.19,101.75,24.31,152.76,35.97,67.89,15.52,136.22,21.7,205.83,19.98"/>
            <path class="cls-107" d="M-108.2,367.79c114.6,7.23,226.57,61.91,329.4,108.92,122.32,55.91,242.22,116.93,364.31,173.33,93.91,43.38,191.08,89.08,292.82,110.78,63.06,13.45,124.07,5.78,181.69-23.3,100.23-50.58,168.75-144.64,261.91-205.35,97.15-63.31,212.6-59.65,323.19-41.08,51.47,8.64,101.73,22.76,152.72,33.68,67.96,14.56,136.33,20.51,205.81,19.26"/>
            <path class="cls-110" d="M-107.88,365.28c114.64,6.03,226.97,61.7,329.4,109.12,122.37,56.65,242.2,118.59,364.34,175.74,93.71,43.85,190.94,90.24,292.83,111.54,62.9,13.15,124.32,5.43,181.73-23.61,100.29-50.74,168.49-145.3,261.62-206.26,97.4-63.76,212.31-58.64,323.21-40.92,51.38,8.21,101.72,21.44,152.69,31.74,68.02,13.74,136.43,19.61,205.81,18.92"/>
            <path class="cls-123" d="M-107.72,363.51c114.63,4.6,227.37,61.14,329.39,108.84,122.43,57.24,242.19,119.96,364.36,177.72,93.5,44.2,190.81,91.17,292.84,111.89,62.72,12.74,124.61,5,181.78-23.96,100.36-50.84,168.27-145.83,261.38-206.98,47.8-31.39,100.74-50.6,158.24-51.81,55.06-1.16,110.62,3.08,165.03,11.45,51.31,7.89,101.71,20.36,152.66,30.15,68.06,13.09,136.51,19,205.81,18.98"/>
            <path class="cls-108" d="M-107.68,362.48c114.73,3.74,227.73,60.59,329.63,108.49,122.26,57.47,241.78,120.57,363.78,178.58,93.36,44.38,190.72,91.62,292.82,111.91,62.63,12.45,124.93,5.23,182.03-23.69,100.62-50.97,168.11-146.88,261.32-208.35,47.87-31.57,100.64-50.39,158.27-51.29,55.03-.87,110.38,3.24,164.76,11.56,51.48,7.88,102.08,20.23,153.2,29.97,68.02,12.96,136.41,18.95,205.65,19.03"/>
            <path class="cls-128" d="M-107.6,362.04c114.89,3.64,227.86,60.36,329.84,108.47,121.81,57.47,240.81,120.66,362.35,178.67,93.22,44.5,190.51,91.76,292.57,111.93,62.64,12.38,125.23,6.07,182.39-22.99,101.11-51.41,167.97-148.89,261.41-211.09,96.58-64.29,212.5-56.7,322.66-39.45,51.96,8.13,102.98,21.01,154.56,31.12,67.98,13.32,136.32,19.4,205.6,18.99"/>
            <path class="cls-98" d="M-107.42,362.13c114.94,3.56,227.77,60.16,329.69,108.48,121.24,57.49,239.63,120.76,360.61,178.79,92.99,44.61,190.09,91.9,292.02,111.96,62.69,12.34,125.51,6.76,182.69-22.56,101.64-52.11,167.85-151.37,261.51-214.55,95.85-64.66,212.91-57.01,322.56-39.33,52.56,8.48,104.08,21.97,156.22,32.54,68.05,13.79,136.45,20.06,205.89,19.24"/>
            <path class="cls-116" d="M-107.17,362.73c114.88,3.49,227.46,59.99,329.21,108.52,120.58,57.51,238.25,120.87,358.56,178.93,92.66,44.72,189.49,92.05,291.19,112.02,62.76,12.32,125.75,7.3,182.92-22.39,102.2-53.08,167.73-154.3,261.64-218.71,95.26-65.34,213.34-57.63,322.72-39.35,53.26,8.9,105.39,23.09,158.19,34.2,68.22,14.35,136.78,20.94,206.51,19.76"/>
            <path class="cls-39" d="M-106.83,363.8c114.72,3.43,226.95,59.85,328.41,108.57,119.82,57.54,236.69,120.99,356.23,179.09,92.24,44.83,188.71,92.2,290.1,112.09,62.86,12.33,125.97,7.71,183.09-22.47,102.79-54.3,167.62-157.65,261.79-223.53,94.8-66.32,213.79-58.52,323.12-39.5,54.06,9.41,106.88,24.37,160.43,36.1,68.48,14.99,137.31,22.01,207.43,20.54"/>
            <path class="cls-103" d="M-106.43,365.33c114.46,3.39,226.24,59.73,327.31,108.64,118.98,57.58,234.94,121.12,353.64,179.26,91.74,44.94,187.75,92.36,288.76,112.18,62.99,12.36,126.16,7.98,183.21-22.77,103.41-55.76,167.51-161.39,261.96-228.96,48.18-34.46,99.11-51.76,158.29-52.05,55.79-.28,110.46,2.27,165.47,12.27,54.94,9.99,108.54,25.8,162.94,38.22,68.83,15.71,138.01,23.26,208.65,21.57"/>
            <path class="cls-26" d="M-105.96,367.28c114.11,3.35,225.35,59.64,325.93,108.74,118.05,57.62,233.03,121.26,350.79,179.45,91.16,45.05,186.64,92.53,287.18,112.29,63.15,12.41,126.33,8.13,183.26-23.3,104.06-57.45,167.41-165.51,262.15-234.97,48.05-35.23,98.8-52.9,158.32-53.15,56.15-.24,110.99,2.45,166.28,12.97,55.92,10.64,110.37,27.37,165.69,40.56,69.26,16.51,138.89,24.68,210.14,22.83"/>
            <path class="cls-67" d="M-105.42,369.63c113.68,3.32,224.29,59.57,324.28,108.85,117.04,57.68,230.96,121.41,347.71,179.66,90.5,45.15,185.37,92.69,285.39,112.41,63.34,12.49,126.47,8.16,183.27-24.03,104.73-59.35,167.32-169.97,262.35-241.53,47.86-36.04,98.48-54.29,158.37-54.53,56.57-.23,111.66,2.73,167.29,13.82,56.98,11.36,112.36,29.08,168.69,43.09,69.76,17.36,139.93,26.26,211.88,24.31"/>
            <path class="cls-44" d="M-104.83,372.35c113.24,3.31,222.96,59.61,322.39,108.98,116.02,57.6,228.74,121.57,344.4,179.88,89.77,45.26,183.97,92.86,283.38,112.55,63.55,12.58,126.6,8.07,183.22-24.94,105.42-61.47,167.24-174.76,262.57-248.6,47.62-36.89,98.17-55.92,158.42-56.16,57.05-.23,112.48,3.13,168.47,14.83,58.11,12.15,114.49,30.9,171.89,45.81,70.33,18.27,141.11,27.99,213.87,25.99"/>
            <path class="cls-12" d="M-104.18,375.42c112.66,3.29,221.59,59.59,320.26,109.12,114.87,57.67,226.39,121.74,340.89,180.12,88.98,45.36,182.43,93.04,281.19,112.7,63.8,12.7,126.71,7.87,183.13-26.04,106.11-63.78,167.17-179.85,262.8-256.14,47.33-37.76,97.84-57.76,158.47-58.04,57.59-.26,113.44,3.62,169.83,15.98,59.31,13,116.76,32.84,175.3,48.7,70.96,19.22,142.44,29.85,216.08,27.86"/>
            <path class="cls-68" d="M-103.48,378.81c112.01,3.29,220.09,59.58,317.93,109.28,113.66,57.74,223.91,121.92,337.19,180.37,88.12,45.47,180.77,93.22,278.82,112.86,64.07,12.83,126.8,7.57,183-27.3,106.82-66.27,167.1-185.21,263.05-264.12,46.98-38.64,97.52-59.81,158.54-60.13,58.17-.3,114.52,4.21,171.34,17.26,60.57,13.9,119.15,34.89,178.9,51.75,71.64,20.22,143.89,31.83,218.49,29.91"/>
            <path class="cls-40" d="M-102.73,382.49c111.3,3.29,218.46,59.59,315.4,109.45,112.4,57.81,221.31,122.1,333.32,180.63,87.21,45.57,179,93.4,276.29,113.03,64.37,12.98,126.89,7.16,182.84-28.7,107.53-68.94,167.05-190.82,263.31-272.49,46.59-39.54,97.18-62.03,158.61-62.42,58.79-.37,115.72,4.9,172.99,18.65,61.9,14.86,121.66,37.03,182.67,54.94,72.38,21.26,145.45,33.92,221.09,32.11"/>
            <path class="cls-130" d="M-101.94,386.44c110.54,3.3,216.72,59.61,312.69,109.63,111.08,57.89,218.61,122.29,329.29,180.9,86.24,45.67,177.13,93.59,273.61,113.21,64.7,13.16,126.97,6.65,182.63-30.25,108.24-71.76,167.01-196.66,263.58-281.23,46.17-40.43,96.84-64.42,158.69-64.89,59.44-.45,117.04,5.67,174.77,20.15,138.18,34.67,264.76,95.86,410.46,92.73"/>
            <path class="cls-82" d="M-101.11,390.63c110.35,3.35,216.27,60.3,311.7,110.82,110.2,58.33,216.78,123.19,326.69,182.04,127.27,68.15,309.23,175.23,448.81,80.22,109.81-74.74,167.94-203.63,265.46-291.53,46.04-41.5,97.42-66.74,159.99-66.95,58.76-.2,115.78,6.47,172.7,21.27,141.04,36.66,270.38,101.95,419.54,99.2"/>
            <path class="cls-13" d="M-100.25,395.03c109.49,3.37,214.33,60.35,308.67,111.02,108.78,58.42,213.88,123.39,322.38,182.33,126.56,68.76,307.32,176.12,445.66,78.66,110.52-77.85,167.92-209.89,265.75-300.93,45.55-42.39,97.07-69.41,160.08-69.71,59.45-.28,117.25,7.37,174.66,22.91,143.25,38.77,274.83,107.66,426.83,105.38"/>
            <path class="cls-62" d="M-99.35,399.62c108.6,3.39,212.3,60.41,305.52,111.23,107.33,58.51,210.91,123.6,317.95,182.63,125.89,69.44,305.28,176.97,442.39,77.02,111.22-81.08,167.91-216.31,266.05-310.59,45.05-43.28,96.7-72.19,160.18-72.59,60.17-.38,118.8,8.34,176.7,24.62,145.51,40.93,279.45,113.48,434.35,111.75"/>
            <path class="cls-65" d="M-98.43,404.36c107.67,3.42,210.2,60.48,302.26,111.45,105.85,58.61,207.88,123.8,313.43,182.94,125.28,70.19,303.12,177.79,439.01,75.3,111.93-84.42,167.82-222.92,266.35-320.47,44.57-44.12,96.3-75.06,160.29-75.57,60.9-.49,120.44,9.36,178.82,26.4,147.81,43.13,284.2,119.41,442.07,118.29"/>
            <path class="cls-21" d="M-97.49,409.24c106.73,3.45,208.05,60.56,298.91,111.68,104.34,58.7,204.79,124.02,308.82,183.25,124.72,71.01,300.86,178.57,435.54,73.51,112.58-87.82,167.92-229.53,266.66-330.53,43.98-44.99,95.96-78.02,160.39-78.65,61.64-.61,122.13,10.44,180.99,28.22,150.14,45.36,289.07,125.41,449.96,124.97"/>
            <path class="cls-93" d="M-96.54,414.23c105.76,3.48,205.86,60.65,295.49,111.91,102.81,58.8,201.66,124.23,304.16,183.56,79.64,46.1,164.54,94.66,255.67,113.35,65.49,13.43,124.16,.39,176.32-41.67,113.24-91.31,167.94-236.28,266.98-340.73,43.43-45.81,95.58-81.03,160.5-81.8,62.38-.74,123.89,11.56,183.22,30.09,152.5,47.62,294.04,131.46,457.97,131.77"/>
            <path class="cls-32" d="M-95.57,419.29c104.79,3.51,203.64,60.74,292.02,112.15,101.27,58.91,198.5,124.45,299.45,183.88,78.46,46.19,162.24,94.86,252.39,113.57,65.91,13.68,124.28-.68,176.01-43.76,113.88-94.85,167.98-243.1,267.3-351.05,42.87-46.6,95.2-84.1,160.62-85,63.12-.88,125.69,12.73,185.49,31.99,154.88,49.88,299.09,137.55,466.08,138.64"/>
            <path class="cls-6" d="M-94.59,424.41c103.8,3.54,201.39,60.83,288.51,112.38,99.72,59.01,195.31,124.66,294.7,184.2,77.26,46.28,159.91,95.06,249.08,113.79,66.34,13.93,124.41-1.81,175.69-45.88,114.51-98.43,168.02-249.96,267.62-361.44,42.32-47.36,94.82-87.19,160.73-88.24,63.86-1.02,127.52,13.93,187.78,33.91,157.27,52.14,304.17,143.66,474.26,145.57"/>
            <path class="cls-118" d="M-93.61,429.55c103.52,3.62,200.28,61.52,286.67,113.64,95.95,57.89,187.93,122.04,283.46,180.59,78.29,47.98,162.85,99.35,254.08,117.66,64.91,13.03,121.49-4.35,170.9-47.86,114.41-100.75,167.75-254.08,265.56-368.9,43.01-50.49,96.89-94.42,166.12-95.41,63.03-.9,126.39,15.04,185.68,35.07,160.61,54.27,310.85,150.57,484.92,153.36"/>
            <path class="cls-66" d="M-92.63,434.7c102.53,3.65,198.02,61.61,283.12,113.88,94.42,57.99,184.8,122.26,278.8,180.91,77.04,48.07,160.43,99.56,250.65,117.89,65.33,13.27,121.66-5.56,170.6-49.97,115-104.34,167.83-260.92,265.88-379.24,42.42-51.2,96.48-97.68,166.23-98.81,63.72-1.03,128.24,16.29,187.95,36.99,163.01,56.53,316.02,156.68,493.17,160.35"/>
            <path class="cls-58" d="M-91.65,439.82c101.56,3.68,195.76,61.71,279.58,114.12,92.9,58.09,181.69,122.47,274.16,181.22,75.8,48.16,158.01,99.77,247.23,118.12,65.73,13.52,121.84-6.8,170.31-52.07,115.56-107.92,167.91-267.73,266.2-389.55,41.85-51.87,96.07-100.92,166.34-102.19,64.41-1.16,130.1,17.54,190.2,38.9,165.38,58.78,321.17,162.76,501.4,167.32"/>
            <path class="cls-91" d="M-90.68,444.88c100.6,3.71,193.53,61.79,276.08,114.35,91.4,58.19,178.59,122.68,269.55,181.53,74.57,48.25,155.62,99.98,243.84,118.35,66.14,13.77,122.02-8.05,170.03-54.14,116.11-111.47,167.99-274.49,266.51-399.78,41.29-52.51,95.67-104.12,166.46-105.53,65.08-1.3,131.94,18.79,192.43,40.79,167.73,60.99,326.3,168.79,509.56,174.23"/>
            <path class="cls-37" d="M-89.72,449.87c99.66,3.74,191.34,61.88,272.64,114.59,89.91,58.29,175.53,122.88,264.99,181.84,73.35,48.34,153.25,100.19,240.5,118.58,66.54,14.02,122.22-9.3,169.75-56.17,116.64-114.99,168.08-281.18,266.83-409.9,40.76-53.12,95.26-107.26,166.57-108.81,65.73-1.43,133.76,20.03,194.62,42.65,170.04,63.17,331.37,174.74,517.61,181.06"/>
            <path class="cls-18" d="M-88.78,454.75c98.75,3.76,189.19,61.95,269.26,114.81,88.44,58.39,172.5,123.09,260.49,182.14,72.15,48.43,150.92,100.4,237.22,118.8,66.93,14.26,122.42-10.54,169.49-58.14,117.15-118.46,168.17-287.78,267.14-419.88,40.24-53.71,94.86-110.33,166.67-112.02,66.37-1.56,135.54,21.26,196.76,44.46,172.3,65.3,336.36,180.61,525.54,187.78"/>
            <path class="cls-102" d="M-87.86,459.49c97.88,3.79,187.11,62.01,265.97,115.04,86.99,58.49,169.53,123.29,256.06,182.44,70.97,48.51,148.63,100.61,234.02,119.01,67.31,14.51,122.62-11.76,169.24-60.05,58.92-61.04,99.65-138.86,139.81-212.79,39.96-73.55,78.04-149.18,127.63-216.89,39.32-53.69,94.77-114.23,166.78-115.13,67.4-.85,136.78,22.26,198.84,46.22,174.49,67.38,341.27,186.38,533.3,194.35"/>
            <path class="cls-95" d="M-86.97,464.08c97.04,3.81,185.09,62.06,262.8,115.25,85.58,58.58,166.62,123.49,251.73,182.73,69.82,48.61,146.41,100.81,230.9,119.22,67.68,14.75,122.83-12.93,169.01-61.88,59.15-62.69,99.8-142.11,139.96-217.57,39.99-75.13,78.06-152.33,127.78-221.69,38.83-54.17,94.4-117.18,166.88-118.14,68.04-.89,138.4,23.39,200.84,47.92,176.62,69.39,346.06,192.02,540.86,200.76"/>
            <path class="cls-80" d="M-86.11,468.48c96.25,3.82,183.16,62.1,259.74,115.46,84.21,58.67,163.78,123.68,247.51,183.02,68.71,48.7,144.25,101.02,227.9,119.43,68.04,14.97,123.03-14.05,168.8-63.61,59.37-64.29,99.94-145.27,140.1-222.21,40.02-76.67,78.09-155.41,127.92-226.37,38.36-54.63,94.02-120.01,166.97-121.01,68.66-.94,139.95,24.47,202.76,49.54,178.67,71.33,350.71,197.53,548.19,206.97"/>
            <path class="cls-25" d="M-85.28,472.67c95.51,3.83,181.33,62.12,256.83,115.65,82.88,58.76,161.02,123.87,243.41,183.29,67.64,48.79,142.18,101.22,225.02,119.62,68.39,15.19,123.24-15.1,168.61-65.24,59.58-65.83,100.08-148.33,140.24-226.71,40.05-78.16,78.12-158.39,128.06-230.91,37.93-55.07,93.65-122.69,167.06-123.73,69.25-.98,141.41,25.49,204.57,51.08,180.61,73.19,355.21,202.89,555.26,212.96"/>
            <path class="cls-97" d="M-84.49,476.61c94.82,3.84,179.59,62.12,254.08,115.84,81.59,58.85,158.35,124.05,239.44,183.56,66.61,48.89,140.19,101.42,222.27,119.81,68.74,15.4,123.44-16.06,168.45-66.74,59.78-67.31,100.21-151.26,140.38-231.04,40.08-79.61,78.14-161.28,128.2-235.29,37.53-55.5,93.28-125.2,167.14-126.28,69.81-1.02,142.78,26.44,206.28,52.53,93.16,38.27,181.62,86.83,272.59,129.84,91.46,43.24,187.21,83.5,289.44,88.85"/>
            <path class="cls-10" d="M-83.74,480.3c91.96,3.76,173.69,59.5,245.77,111.86,83.41,60.58,161.26,128.39,243.96,189.91,64.43,47.92,135.29,98.79,214.79,117.45,72.05,16.92,128.06-17.43,173.98-71.42,119.03-139.96,167.32-327.04,270.21-477.81,35.98-52.72,89.12-118.5,158.95-121.54,72.1-3.14,149.97,28.06,215.05,55.35,92.58,38.83,180.64,87.42,271.11,130.74,92.66,44.36,189.83,86.25,293.7,91.86"/>
            <path class="cls-125" d="M-83.04,483.68c91.41,3.76,172.25,59.45,243.48,112.01,82.2,60.66,158.72,128.57,240.2,190.16,63.53,48.03,133.56,98.98,212.42,117.61,72.39,17.11,128.27-18.22,173.87-72.7,119.42-142.7,167.36-332.33,270.46-485.81,35.69-53.13,88.77-120.47,159.01-123.58,72.6-3.21,151.18,28.88,216.54,56.61,93.81,39.79,183.01,89.43,274.67,133.75,93.3,45.11,191.35,88.19,296.18,93.96"/>
            <path class="cls-27" d="M-82.39,486.75c90.94,3.74,170.95,59.37,241.4,112.15,81.06,60.73,156.32,128.73,236.64,190.4,62.69,48.13,131.96,99.16,210.22,117.76,72.72,17.29,128.47-18.87,173.8-73.83,56.54-68.54,95.27-151.42,133.59-230.93,42.74-88.68,82.61-180.12,137.1-262.44,35.44-53.53,88.42-122.25,159.07-125.4,73.07-3.26,152.24,29.61,217.87,57.74,94.97,40.71,185.26,91.34,278.04,136.61,93.87,45.8,192.75,90.02,298.44,95.88"/>
            <path class="cls-47" d="M-81.79,489.48c90.54,3.72,169.79,59.26,239.54,112.28,79.98,60.79,154.05,128.89,233.28,190.63,61.92,48.25,130.48,99.33,208.22,117.9,73.04,17.44,128.66-19.36,173.77-74.77,56.7-69.65,95.38-153.65,133.69-234.23,42.76-89.93,82.61-182.63,137.22-266.23,35.22-53.92,88.08-123.82,159.11-126.99,73.51-3.28,153.14,30.22,219.04,58.73,96.06,41.56,187.37,93.14,281.22,139.3,94.37,46.42,194,91.74,300.48,97.61"/>
            <path class="cls-117" d="M-81.26,491.83c90.21,3.69,168.8,59.13,237.93,112.38,78.98,60.85,151.93,129.04,230.15,190.84,61.22,48.37,129.14,99.51,206.43,118.02,73.34,17.57,128.84-19.68,173.78-75.52,56.86-70.66,95.49-155.72,133.79-237.29,42.78-91.1,82.6-184.96,137.33-269.75,35.05-54.3,87.74-125.16,159.16-128.33,73.92-3.27,153.87,30.71,220.03,59.57,97.09,42.36,189.34,94.81,284.17,141.81,94.79,46.97,195.11,93.32,302.28,99.14"/>
            <path class="cls-77" d="M-80.79,493.78c89.97,3.66,167.97,58.96,236.57,112.48,78.06,60.9,149.98,129.18,227.26,191.03,60.59,48.49,127.96,99.67,204.86,118.12,73.64,17.67,129.01-19.8,173.84-76.06,57.03-71.58,95.59-157.61,133.88-240.08,42.79-92.17,82.59-187.12,137.43-273,34.91-54.67,87.4-126.27,159.19-129.39,74.31-3.23,154.42,31.07,220.83,60.26,98.03,43.09,191.16,96.35,286.9,144.12,95.12,47.45,196.06,94.78,303.82,100.44"/>
            <path class="cls-33" d="M-80.38,495.31c89.82,3.62,167.32,58.75,235.5,112.55,77.23,60.94,148.19,129.31,224.62,191.21,60.05,48.63,126.94,99.83,203.53,118.21,73.92,17.74,129.18-19.71,173.95-76.39,57.18-72.39,95.68-159.3,133.95-242.58,42.8-93.14,82.57-189.08,137.52-275.94,34.82-55.04,87.06-127.11,159.21-130.16,74.67-3.16,154.76,31.28,221.42,60.77,98.89,43.74,192.81,97.76,289.38,146.22,95.36,47.85,196.84,96.09,305.08,101.5"/>
            <path class="cls-36" d="M-80.05,496.38c89.75,3.56,166.87,58.51,234.73,112.6,76.49,60.97,146.58,129.44,222.26,191.37,59.59,48.77,126.1,99.99,202.46,118.29,74.19,17.78,129.33-19.39,174.12-76.47,57.34-73.08,95.77-160.8,134.02-244.78,42.81-94.01,82.54-190.84,137.6-278.57,34.77-55.4,86.73-127.68,159.23-130.63,75-3.05,154.89,31.35,221.79,61.1,99.66,44.33,194.29,99.01,291.6,148.09,95.49,48.17,197.44,97.25,306.04,102.32"/>
            <path class="cls-78" d="M-79.8,496.98c89.78,3.5,166.62,58.23,234.27,112.63,75.84,60.99,145.17,129.55,220.18,191.51,59.23,48.93,125.44,100.14,201.65,118.34,74.44,17.78,129.47-18.83,174.34-76.31,57.5-73.66,95.86-162.07,134.08-246.67,42.81-94.76,82.51-192.38,137.67-280.86,34.77-55.76,86.39-127.97,159.23-130.77,75.3-2.9,154.8,31.24,221.93,61.24,100.34,44.83,195.58,100.11,293.54,149.74,95.52,48.4,197.85,98.26,306.69,102.87"/>
            <path class="cls-61" d="M-79.62,497.07c89.91,3.43,166.58,57.91,234.14,112.64,75.3,61,143.96,129.64,218.41,191.63,58.97,49.09,124.98,100.28,201.13,118.38,74.67,17.75,129.6-18.02,174.62-75.89,57.65-74.1,95.95-163.12,134.13-248.21,42.81-95.4,82.46-193.69,137.73-282.8,34.96-56.37,85.96-127.59,159.23-130.57,75.35-3.06,154.7,31.08,221.84,61.17,100.92,45.25,196.68,101.04,295.18,151.13,95.44,48.53,198.07,99.12,307.01,103.14"/>
            <path class="cls-100" d="M-79.53,496.62c90.15,3.35,166.76,57.54,234.36,112.63,74.86,61,142.96,129.73,216.96,191.73,58.81,49.27,124.73,100.41,200.9,118.39,74.88,17.67,129.72-16.95,174.96-75.19,57.81-74.42,96.03-163.93,134.16-249.4,42.8-95.92,82.4-194.76,137.78-284.35,35.07-56.73,85.63-127.26,159.21-130.01,75.58-2.82,154.11,30.62,221.48,60.9,101.4,45.57,197.57,101.8,296.52,152.27,95.23,48.57,198.08,99.8,306.98,103.12"/>
            <path class="cls-29" d="M-79.55,495.62c90.25,3.55,166.86,57.54,234.56,112.74,74.7,60.9,142.62,129.55,216.46,191.45,58.82,49.31,124.72,100.35,200.9,118.39,74.9,17.74,129.36-16.82,174.62-75.07,57.86-74.48,96.3-163.95,134.67-249.42,43.07-95.93,82.96-194.75,138.48-284.38,35.02-56.53,85.39-127.11,158.74-129.99,75.63-2.97,154.15,30.38,221.55,60.72,101.37,45.64,197.45,102.03,296.35,152.62,95.18,48.68,198.07,100.02,307.03,103.02"/>
            <path class="cls-113" d="M-79.74,493.99c90.14,3.99,166.73,57.81,234.53,112.85,74.74,60.67,142.8,129.03,216.7,190.7,58.94,49.18,124.84,100.01,200.94,118.28,74.74,17.94,128.64-17.7,173.78-75.57,57.93-74.28,96.98-163.18,135.96-248.28,43.71-95.43,84.34-193.68,140.17-282.89,34.91-55.79,85.46-127.19,158.13-130.53,75.51-3.47,154.8,30.45,221.99,60.78,100.82,45.5,196.28,101.85,294.6,152.33,95.25,48.91,197.98,99.87,307.06,103.03"/>
            <path class="cls-8" d="M-80.13,491.78c90.03,4.36,166.62,57.95,234.55,112.79,74.8,60.39,143.02,128.4,216.99,189.77,59.08,49.02,125,99.59,201.03,118,74.59,18.07,128.09-18.4,173.25-75.84,58.13-73.93,97.92-162.18,137.62-246.81,44.49-94.83,85.99-192.39,142.25-281.05,34.97-55.11,85.84-126.99,157.91-130.72,75.31-3.89,155.18,30.47,222.1,60.78,100.13,45.34,194.84,101.62,292.44,151.98,95.17,49.11,197.58,99.67,306.64,102.96"/>
            <path class="cls-53" d="M-80.7,489c89.92,4.66,166.54,57.95,234.62,112.54,74.88,60.05,143.27,127.67,217.33,188.69,59.23,48.81,125.21,99.07,201.16,117.58,74.43,18.14,127.69-18.95,173.02-75.89,58.46-73.44,99.12-160.95,139.66-245.01,45.39-94.11,87.88-190.9,144.72-278.86,35.03-54.2,86.62-126.96,158.07-130.58,75.3-3.82,155,30.31,221.89,60.73,99.32,45.17,193.14,101.34,289.9,151.56,94.93,49.28,196.89,99.44,305.79,102.82"/>
            <path class="cls-63" d="M-81.44,485.68c89.81,4.89,166.48,57.82,234.75,112.14,74.98,59.65,143.55,126.83,217.71,187.46,59.41,48.56,125.45,98.47,201.33,117.02,30.68,7.5,60.14,9.08,89.51-4.13,33.64-15.13,60.72-43.37,83.56-71.6,58.92-72.82,100.55-159.5,142.03-242.9,46.4-93.29,90-189.21,147.56-276.35,35.4-53.59,87.56-126.28,158.57-130.14,75.01-4.08,154.85,30.23,221.39,60.64,98.39,44.97,191.2,101.03,286.99,151.09,94.55,49.42,195.94,99.17,304.53,102.62"/>
            <path class="cls-56" d="M-82.33,481.86c91.83,5.17,170.39,60.08,240.11,115.66,72.26,57.6,138.94,121.81,210.63,180.11,60.72,49.38,128.51,100.56,206.16,118.83,71.04,16.71,122.84-18.82,167.63-71.82,63.43-75.04,107.85-166.03,152.44-252.91,44.68-87.05,87.35-176.03,141.46-257.76,37.27-56.29,92.6-134.74,167.9-137.05,72.8-2.23,148.52,29.26,213.35,58.82,99.34,45.3,192.7,102.46,289.24,153.22,93.51,49.17,193.68,98,301.19,101.46"/>
            <path class="cls-126" d="M-83.38,477.57c91.72,5.29,170.38,59.71,240.34,114.92,72.39,57.13,139.27,120.83,211.09,178.64,60.94,49.06,128.83,99.79,206.43,118,70.92,16.65,122.86-18.94,168.16-71.32,64.12-74.15,109.81-164.1,155.6-250.11,45.84-86.09,89.73-174.09,144.76-254.83,37.96-55.69,94.15-133.56,169.14-135.96,72.44-2.32,147.91,29.08,212.34,58.66,98.17,45.07,190.28,102.07,285.6,152.63,92.87,49.26,192.23,97.66,299.2,101.13"/>
            <path class="cls-54" d="M-84.57,472.83c91.61,5.35,170.39,59.22,240.62,114.05,72.52,56.61,139.62,119.76,211.58,177.06,61.17,48.71,129.18,98.93,206.73,117.04,70.81,16.54,123.01-18.94,168.92-70.65,64.92-73.14,111.97-161.98,159.07-247.04,47.09-85.06,92.3-172.01,148.35-251.66,38.79-55.13,95.92-132.15,170.68-134.6,72.03-2.36,147.11,28.86,211.09,58.45,96.9,44.82,187.65,101.65,281.66,151.99,92.11,49.32,190.56,97.28,296.87,100.75"/>
            <path class="cls-45" d="M-85.89,467.67c91.5,5.36,170.42,58.64,240.93,113.04,72.67,56.06,140,118.63,212.12,175.36,61.41,48.32,129.57,98.02,207.06,115.98,70.71,16.39,123.29-18.83,169.89-69.82,65.82-72.02,114.33-159.68,162.81-243.73,48.43-83.95,95.05-169.77,152.2-248.25,39.75-54.58,97.88-130.53,172.5-132.98,71.58-2.36,146.12,28.6,209.6,58.21,95.54,44.56,184.82,101.19,277.43,151.3,91.23,49.37,188.67,96.86,294.22,100.32"/>
            <path class="cls-85" d="M-87.34,462.13c90.84,5.28,169.55,57.4,240,110.93,74.54,56.64,143.52,120.16,217.62,177.35,59.93,46.25,125.82,93.1,200.55,111.24,72.71,17.65,126.56-17.33,175.33-69.27,134.33-143.05,207.15-333.75,325.94-488.71,40.18-52.41,97.04-122.07,168.98-125.78,72.31-3.73,148.7,28.77,212.5,59.02,93.55,44.36,180.89,100.5,271.64,150.08,89.78,49.05,185.62,95.59,289.7,98.98"/>
            <path class="cls-90" d="M-88.9,456.24c90.74,5.2,169.61,56.66,240.38,109.7,74.71,56,143.95,118.86,218.23,175.41,60.18,45.81,126.24,92.1,200.94,110.01,72.65,17.42,127.06-17.06,176.71-68.15,136.44-140.38,213.2-328.71,334.59-481.05,41.34-51.88,99.24-120.18,171.21-123.8,71.78-3.62,147.34,28.43,210.57,58.71,92.03,44.07,177.73,99.99,266.91,149.31,88.71,49.06,183.37,95.13,286.5,98.46"/>
            <path class="cls-70" d="M-90.56,450.01c90.64,5.08,169.7,55.84,240.8,108.37,74.89,55.33,144.4,117.51,218.86,173.38,60.45,45.36,126.69,91.06,201.35,108.7,72.6,17.16,127.66-16.73,178.26-66.91,138.7-137.55,219.54-323.41,343.67-473.01,42.59-51.33,101.58-118.13,173.66-121.64,71.23-3.46,145.82,28.05,208.46,58.38,90.43,43.78,174.42,99.46,261.95,148.5,87.55,49.06,180.95,94.63,283.07,97.9"/>
            <path class="cls-87" d="M-92.32,443.49c90.03,4.89,168.84,54.38,239.96,106.01,74.78,54.28,144.26,115.42,218.46,170.46,60.57,44.93,126.64,90.08,200.92,108.29,74.34,18.22,131.42-15.01,184.27-65.78,139.96-134.44,224.91-316.42,351.19-462.6,43.47-50.32,103.43-116.07,175.02-120.44,71.94-4.39,148.13,28.43,211.02,59.46,88.24,43.54,170.08,98.69,255.56,147.17,85.89,48.71,177.47,93.31,277.93,96.47"/>
            <path class="cls-42" d="M-94.16,436.7c89.94,4.7,168.96,53.45,240.43,104.51,74.97,53.56,144.74,113.96,219.14,168.28,60.85,44.43,127.12,88.94,201.38,106.82,74.33,17.89,132.21-14.6,186.13-64.32,142.47-131.37,231.72-310.73,360.98-453.94,44.9-49.75,106.01-113.78,177.87-117.92,71.34-4.11,146.29,27.96,208.54,59.06,86.52,43.23,166.52,98.12,250.24,146.31,84.59,48.69,174.78,92.78,274.09,95.85"/>
            <path class="cls-50" d="M-96.08,429.68c89.32,4.45,168.15,51.93,239.64,102.04,76.89,53.9,148.39,115.02,224.79,169.59,60.65,43.32,126.8,86.4,200.47,103.11,74.15,16.82,132.37-15.83,186.99-64.31,144.09-127.89,237.59-303.34,369.06-443.04,47.65-50.64,110.81-113.42,185.1-116.27,68.51-2.62,139.43,27.13,199.32,57.14,166.51,83.41,323.01,236.35,518.09,242.23"/>
            <path class="cls-48" d="M-98.06,422.44c89.24,4.21,168.29,50.91,240.15,100.42,77.1,53.12,148.91,113.45,225.53,167.24,60.95,42.78,127.3,85.21,200.96,101.56,74.19,16.47,133.35-15.29,189.11-62.64,146.79-124.67,244.75-297.33,379.38-433.9,49.26-49.97,113.62-110.87,188.27-113.45,67.84-2.35,137.46,26.64,196.65,56.71,163.53,83.05,315.74,234.96,508.21,240.62"/>
            <path class="cls-64" d="M-100.1,415.03c89.16,3.96,168.43,49.85,240.67,98.74,77.31,52.33,149.44,111.84,226.28,164.84,61.25,42.24,127.81,83.98,201.46,99.96,74.26,16.11,134.4-14.71,191.33-60.91,149.56-121.38,252.07-291.18,389.94-424.55,50.93-49.27,116.49-108.23,191.56-110.53,67.15-2.06,135.41,26.12,193.89,56.25,160.46,82.69,308.27,233.54,498.08,238.98"/>
            <path class="cls-129" d="M-102.19,407.47c88.55,3.65,167.67,48.27,239.93,96.17,77.22,51.19,149.35,109.57,225.96,161.64,62.79,42.68,131.19,85.16,206.62,100.45,73.86,14.98,135.14-15.79,192.55-60.53,151.31-117.95,258.16-283.59,398.56-413.24,52.3-48.29,118.96-105.85,194.07-108.26,68.13-2.19,136.18,25.71,195.28,56.89,156.24,82.42,299.19,230.87,485.32,236.02"/>
            <path class="cls-24" d="M-104.32,399.79c88.48,3.37,167.83,47.17,240.48,94.43,77.44,50.38,149.89,107.92,226.73,159.17,63.11,42.09,131.73,83.85,207.15,98.75,74.01,14.62,136.31-15.1,194.93-58.66,154.2-114.6,265.69-277.25,409.42-403.62,54.04-47.52,121.9-103.07,197.54-105.18,67.37-1.88,134.04,25.17,192.33,56.43,153.07,82.06,291.43,229.41,474.85,234.32"/>
            <path class="cls-16" d="M-106.47,392.02c87.9,3.05,167.08,45.58,239.76,91.84,77.34,49.24,149.81,105.63,226.43,155.95,63.27,41.55,131.76,82.67,206.86,97.93,73.52,14.94,136.09-11.3,196.08-52.99,159.2-110.63,276.02-272.16,423.88-396.25,55.34-46.44,124.39-100.36,200.08-102.9,65.96-2.21,131.38,23.65,188.4,54.42,151.16,81.58,285.29,229.53,467.16,234.2"/>
            <path class="cls-72" d="M-108.64,384.19c87.83,2.75,167.25,44.46,240.32,90.06,77.56,48.41,150.35,103.96,227.21,153.45,63.6,40.95,132.3,81.31,207.41,96.17,73.69,14.58,137.34-10.74,198.45-51.17,162.13-107.26,283.71-265.63,435.01-386.4,57.15-45.62,127.35-97.52,203.69-99.71,65.21-1.87,129.2,23.08,185.43,53.96,147.92,81.22,277.27,228.03,456.4,232.45"/>
            <path class="cls-96" d="M-110.83,376.34c87.27,2.43,166.5,42.89,239.61,87.5,79.49,48.51,154.06,104.55,232.94,154.02,63.51,39.83,131.94,78.69,206.53,92.49,73.71,13.64,138.02-11.46,199.9-50.58,166.25-105.1,293.12-261.88,449.9-379.44,58.93-44.19,129.14-91.8,205.63-92.72,64.16-.77,126.21,23.72,181.26,54.73,143.71,80.95,267.85,225.34,443.44,229.47"/>
            <path class="cls-94" d="M-113.01,368.48c87.21,2.13,166.67,41.78,240.16,85.73,79.72,47.67,154.63,102.85,233.74,151.47,63.82,39.22,132.48,77.37,207.08,90.76,73.95,13.27,139.3-10.83,202.31-48.71,169.23-101.75,300.93-255.26,461.16-369.48,60.7-43.27,131.99-89,209.16-89.59,63.35-.49,124.01,23.13,178.19,54.23,140.48,80.63,259.76,223.84,432.7,227.73"/>
            <path class="cls-99" d="M-115.18,360.65c89.22,1.87,170.62,42.54,245.98,87.08,77.2,45.64,150.17,97.99,226.91,144.37,65.39,39.52,135.93,78.24,212.24,90.9,73.84,12.24,140.25-11.47,203.79-48.01,171.13-98.44,307.15-247.52,469.95-358.04,62.03-42.11,134.32-86.52,211.76-87.22,64.13-.58,124.65,22.73,179.19,54.91,136.32,80.43,250.44,221.17,419.97,224.79"/>
            <path class="cls-28" d="M-117.34,352.88c89.16,1.58,170.8,41.42,246.54,85.28,77.42,44.83,150.71,96.35,227.68,141.92,65.71,38.91,136.48,76.9,212.79,89.15,74.15,11.91,141.53-10.79,206.18-46.14,174.09-95.21,314.84-240.97,481.03-348.23,63.74-41.14,137.07-83.76,215.21-84.15,63.31-.32,122.52,22.15,176.16,54.43,133.17,80.15,242.38,219.68,409.41,223.07"/>
            <path class="cls-76" d="M-119.46,345.2c88.61,1.29,170.05,39.91,245.8,82.78,79.35,44.9,154.46,96.83,233.43,142.38,64.06,36.95,132.74,72.51,206.46,84.75,76.28,12.67,145.78-9.41,213.09-44.56,176.01-91.91,320.89-233.32,489.49-337.09,65.26-40.17,139.26-81.01,217.89-81.83,62.03-.65,120.09,20.65,172.56,52.54,131.21,79.74,235.82,219.67,401.43,222.84"/>
            <path class="cls-112" d="M-121.55,337.64c88.56,1.02,170.22,38.86,246.34,81.05,79.57,44.1,155,95.2,234.19,139.94,64.36,36.36,133.24,71.24,206.97,83.11,76.6,12.33,147.06-8.82,215.4-42.76,178.91-88.85,328.35-226.93,500.26-327.56,66.89-39.16,141.89-78.36,221.25-78.86,61.25-.38,118.1,20.08,169.7,52.09,128.17,79.51,227.81,218.2,391.11,221.17"/>
            <path class="cls-73" d="M-123.59,330.23c88.04,.76,169.45,37.45,245.58,78.68,79.46,43.03,154.87,93.04,233.85,136.91,66.04,36.69,136.59,71.85,212.08,83.13,76.64,11.46,147.91-9.19,216.81-41.95,180.69-85.9,334-219.64,508.25-316.89,69.85-38.99,147.29-77.35,229.13-76.55,58.32,.57,111.99,19.35,161.19,50.09,126.5,79.04,221.09,218.21,383.28,220.99"/>
            <path class="cls-101" d="M-125.57,323c87.99,.54,169.61,36.49,246.09,77.07,79.66,42.27,155.39,91.47,234.58,134.57,66.33,36.11,137.08,70.6,212.58,81.54,76.99,11.16,149.11-8.62,218.96-40.24,183.49-83.05,341.13-213.5,518.54-307.78,71.41-37.95,149.75-74.75,232.31-73.73,57.56,.71,110.21,18.82,158.55,49.66,123.63,78.87,213.25,216.77,373.37,219.37"/>
            <path class="cls-46" d="M-127.49,315.97c89.9,.34,173.56,37.14,251.84,78.25,77.14,40.52,150.85,87.17,227.66,128.29,67.9,36.35,140.5,71.34,217.66,81.63,74.56,9.94,145.06-7.72,213.52-36.72,188.07-79.67,351.04-208.34,532.65-300.6,72.35-36.75,151.62-72.53,234.34-71.72,58.35,.57,111.35,18.48,159.93,50.48,119.87,78.96,204.69,214.27,362.05,216.69"/>
            <path class="cls-124" d="M-129.33,309.18c89.85,.17,173.7,36.26,252.31,76.73,77.33,39.82,151.33,85.73,228.33,126.14,68.19,35.79,140.97,70.13,218.13,80.13,74.88,9.7,146.09-7.26,215.35-35.25,190.7-77.08,357.78-202.47,542.41-291.95,73.71-35.73,153.85-70.17,237.22-69.17,57.64,.69,109.77,17.97,157.51,50.1,117.23,78.88,197.24,212.9,352.83,215.19"/>
            <path class="cls-41" d="M-131.09,302.66c89.81,.03,173.83,35.44,252.76,75.3,77.51,39.14,151.78,84.33,228.98,124.07,68.46,35.24,141.41,68.97,218.58,78.7,75.19,9.48,147.05-6.86,217.04-33.89,193.25-74.63,364.29-196.78,551.83-283.61,127.11-58.85,270.12-102.96,395.17-17.03,114.74,78.85,190.02,211.57,344,213.75"/>
            <path class="cls-30" d="M-132.75,296.44c89.26-.09,173.04,34.33,251.87,73.31,79.4,39.26,155.47,84.85,234.62,124.58,66.76,33.51,137.44,65.19,212.14,75.09,77.15,10.23,151.12-6.04,223.3-32.84,197.16-73.2,373.1-193.49,565.35-277.69,125.92-55.14,269.29-97.58,391.06-11.38,52.19,36.95,93.67,86.41,141.31,128.62,55.57,49.23,117.16,81.64,192.73,82.67"/>
            <path class="cls-17" d="M-134.31,290.54c89.22-.15,173.15,33.67,252.26,72.08,79.57,38.63,155.9,83.54,235.23,122.64,67,33.02,137.82,64.17,212.52,73.86,77.4,10.05,151.92-5.79,224.7-31.71,199.51-71.05,379.1-188.21,574.01-270.02,125.22-52.56,271.18-96.54,391.3-9.74,50.77,36.69,90.51,85.9,136.59,127.85,54.3,49.43,114.87,81.16,189.57,82.16"/>
            <path class="cls-127" d="M-135.76,285c88.7-.19,172.31,32.74,251.3,70.34,79.4,37.79,155.65,81.81,234.73,120.26,67.02,32.58,137.69,63.36,212.13,73.47,79.1,10.75,155.87-5.05,230.58-30.79,198.09-68.24,378.38-179.47,571.91-258.72,127.22-52.1,280.27-101.43,401.69-10.75,47.75,35.66,85.06,82.84,128.11,123.61,53.7,50.86,113.99,83.13,189.23,84.12"/>
            <path class="cls-49" d="M-137.08,279.84c88.66-.17,172.39,32.26,251.61,69.35,79.55,37.24,156.03,80.64,235.27,118.53,67.23,32.14,138.01,62.46,212.45,72.43,79.27,10.62,156.46-4.97,231.6-29.93,200.14-66.48,383.6-174.83,579.47-252.04,126.47-49.86,282.06-100.67,401.92-9.4,46.52,35.43,82.32,82.39,124.02,122.94,52.57,51.12,112.03,82.7,186.54,83.68"/>
            <path class="cls-74" d="M-138.27,275.1c88.62-.1,172.44,31.87,251.88,68.48,79.69,36.73,156.39,79.55,235.77,116.91,67.43,31.74,138.31,61.62,212.75,71.49,79.39,10.53,156.92-4.98,232.4-29.23,202.03-64.92,388.45-170.49,586.47-245.83,125.74-47.84,283.7-100.11,402.11-8.26,45.39,35.21,79.76,81.98,120.2,122.32,51.53,51.4,110.3,82.3,184.18,83.3"/>
            <path class="cls-109" d="M-139.32,270.81c88.57,.02,172.48,31.59,252.11,67.76,79.82,36.26,156.72,78.54,236.24,115.42,67.61,31.36,138.57,60.86,213,70.67,79.45,10.48,157.24-5.07,232.97-28.7,203.76-63.58,392.89-166.48,592.9-240.14,125.04-46.05,285.16-99.75,402.25-7.34,44.36,35.01,77.41,81.6,116.69,121.75,50.6,51.72,108.81,81.94,182.15,82.97"/>
            <path class="cls-69" d="M-140.22,266.99c88.04,.18,171.58,31.08,250.99,66.6,81.64,36.52,160.3,79.3,241.69,116.36,67.29,30.64,137.85,59.17,211.71,68.51,76.74,9.71,151.98-4.93,225.38-26.89,209.69-62.72,404.81-166.07,610.84-239.01,122.1-43.23,280.3-95.68,394.19-5.71,44.52,35.17,76.83,82.58,115.85,123.24,49.64,51.72,107.32,80.96,179.85,82.02"/>
            <path class="cls-119" d="M-140.95,263.68c87.99,.41,171.57,31.02,251.12,66.19,81.74,36.14,160.58,78.45,242.07,115.12,67.43,30.34,138.04,58.57,211.89,67.97,76.66,9.75,151.98-5.24,225.4-26.76,211.04-61.85,408.45-162.71,616.06-234.39,121.57-41.97,281.24-95.8,394.2-5.34,43.7,34.99,74.88,82.27,112.94,122.76,48.96,52.09,106.4,80.7,178.59,81.81"/>
            <path class="cls-5" d="M-141.52,260.9c87.94,.7,171.53,31.08,251.2,65.95,81.83,35.81,160.83,77.7,242.42,114.03,67.56,30.08,138.19,58.07,212.01,67.56,76.51,9.83,151.81-5.66,225.15-26.83,212.17-61.24,411.61-159.76,620.57-230.39,121.14-40.95,281.92-96.16,394.16-5.24,42.99,34.83,73.17,81.99,110.4,122.35,48.41,52.49,105.76,80.48,177.75,81.68"/>
            <path class="cls-11" d="M-141.91,258.68c176.2,2.12,337.52,109.93,493.93,178.97,67.66,29.87,138.3,57.66,212.1,67.29,76.29,9.96,151.46-6.21,224.6-27.12,213.07-60.9,414.25-157.23,624.33-227.07,120.82-40.17,282.34-96.78,394.06-5.42,42.41,34.68,71.72,81.76,108.24,122,48.02,52.91,105.45,80.32,177.34,81.61"/>
            <path class="cls-3" d="M-142.11,257.06c176.1,2.98,337.45,109.64,494.13,178.32,67.74,29.69,138.38,57.34,212.13,67.18,75.99,10.14,150.92-6.88,223.75-27.62,213.72-60.85,416.37-155.15,627.29-224.44,120.79-39.68,282.29-97.57,393.89-5.89,41.99,34.49,70.55,81.58,106.49,121.71,47.78,53.36,105.46,80.21,177.38,81.62"/>
        </g>
    </g>
</svg>