<svg width="96" height="96" viewBox="0 0 96 96" fill="none" xmlns="http://www.w3.org/2000/svg">
<g clip-path="url(#clip0_91_1931)">
<path d="M83.88 29.08C85.44 27.52 85.44 25 83.88 23.44L72.56 12.12C71 10.56 68.48 10.56 66.92 12.12L48.96 30.08L33.4 14.52C30.28 11.4 25.2 11.4 22.08 14.52L14.48 22.12C11.36 25.24 11.36 30.32 14.48 33.44L30.04 49L12 67.04V84H28.96L47.04 65.92L62.6 81.48C66.4 85.28 71.52 83.88 73.92 81.48L81.52 73.88C84.64 70.76 84.64 65.68 81.52 62.56L65.96 47L83.88 29.08ZM20.16 27.76L27.72 20.16L32.8 25.24L28.08 30L33.72 35.64L38.48 30.88L43.28 35.68L35.68 43.28L20.16 27.76ZM65.08 57.52L60.32 62.28L65.96 67.92L70.72 63.16L75.8 68.24L68.2 75.84L52.64 60.28L60.24 52.68L65.08 57.52ZM25.64 76H20V70.36L58.44 31.92L63.64 37.12L64.08 37.56L25.64 76ZM64.08 26.24L69.72 20.6L75.36 26.24L69.72 31.88L64.08 26.24Z" fill="#F5F5F5"/>
</g>
<defs>
<clipPath id="clip0_91_1931">
<rect width="96" height="96" fill="white"/>
</clipPath>
</defs>
</svg>
