<svg width="96" height="96" viewBox="0 0 96 96" fill="none" xmlns="http://www.w3.org/2000/svg">
<path d="M46.8 72C40.4 71.6667 35 69.2 30.6 64.6C26.2 60 24 54.4667 24 48C24 41.3333 26.3333 35.6667 31 31C35.6667 26.3333 41.3333 24 48 24C54.4667 24 60 26.2 64.6 30.6C69.2 35 71.6667 40.4 72 46.8L63.6 44.3C62.7333 40.7 60.8667 37.75 58 35.45C55.1333 33.15 51.8 32 48 32C43.6 32 39.8333 33.5667 36.7 36.7C33.5667 39.8333 32 43.6 32 48C32 51.8 33.15 55.1333 35.45 58C37.75 60.8667 40.7 62.7333 44.3 63.6L46.8 72ZM82.1 90L65 72.9L60 88L48 48L88 60L72.9 65L90 82.1L82.1 90Z" fill="#F5F5F5"/>
</svg>
