<svg width="96" height="96" viewBox="0 0 96 96" fill="none" xmlns="http://www.w3.org/2000/svg">
<g clip-path="url(#clip0_91_1933)">
<path d="M81.52 34.28L76.6 41.68C78.9727 46.4123 80.1343 51.6593 79.9807 56.9509C79.8271 62.2425 78.3631 67.4133 75.72 72H20.28C16.8446 66.0404 15.4211 59.1325 16.2205 52.3003C17.0199 45.4681 19.9996 39.0753 24.7179 34.0697C29.4361 29.0641 35.6418 25.7122 42.4149 24.5108C49.188 23.3094 56.1679 24.3225 62.32 27.4L69.72 22.48C62.1859 17.6489 53.2492 15.484 44.3395 16.3317C35.4298 17.1795 27.0617 20.9908 20.5739 27.156C14.0861 33.3213 9.8534 41.4843 8.55283 50.3393C7.25225 59.1942 8.95896 68.2296 13.4 76C14.098 77.2091 15.1003 78.2145 16.3073 78.9162C17.5142 79.6179 18.8838 79.9916 20.28 80H75.68C77.0896 80.0056 78.4758 79.6386 79.698 78.9362C80.9202 78.2337 81.9351 77.2208 82.64 76C86.3255 69.6157 88.175 62.3371 87.9844 54.9678C87.7939 47.5985 85.5705 40.4253 81.56 34.24L81.52 34.28Z" fill="#F5F5F5"/>
<path d="M42.36 61.64C43.103 62.3838 43.9853 62.9739 44.9564 63.3765C45.9276 63.7791 46.9686 63.9863 48.02 63.9863C49.0713 63.9863 50.1123 63.7791 51.0835 63.3765C52.0547 62.9739 52.937 62.3838 53.68 61.64L76.32 27.68L42.36 50.32C41.6162 51.063 41.0261 51.9453 40.6235 52.9165C40.2209 53.8877 40.0137 54.9287 40.0137 55.98C40.0137 57.0313 40.2209 58.0723 40.6235 59.0435C41.0261 60.0147 41.6162 60.897 42.36 61.64Z" fill="#F5F5F5"/>
</g>
<defs>
<clipPath id="clip0_91_1933">
<rect width="96" height="96" fill="white"/>
</clipPath>
</defs>
</svg>
